<?xml version="1.0" encoding="UTF-8" standalone="no"?>
<!DOCTYPE svg PUBLIC "-//W3C//DTD SVG 1.1//EN"
 "http://www.w3.org/Graphics/SVG/1.1/DTD/svg11.dtd">
<!-- Generated by graphviz version 2.43.0 (0)
 -->
<!-- Title: %3 Pages: 1 -->
<svg width="1608pt" height="1647pt"
 viewBox="0.00 0.00 1608.00 1647.48" xmlns="http://www.w3.org/2000/svg" xmlns:xlink="http://www.w3.org/1999/xlink">
<g id="graph0" class="graph" transform="scale(1 1) rotate(0) translate(4 1643.48)">
<title>%3</title>
<polygon fill="white" stroke="transparent" points="-4,4 -4,-1643.48 1604,-1643.48 1604,4 -4,4"/>
<!-- Cost_scaling_factor_global -->
<g id="node1" class="node">
<title>Cost_scaling_factor_global</title>
<text text-anchor="middle" x="1150" y="-956.84" font-family="Times,serif" font-size="14.00">Cost_scaling_factor_global</text>
</g>
<!-- Mission_time -->
<g id="node25" class="node">
<title>Mission_time</title>
<text text-anchor="middle" x="1350.5" y="-815.84" font-family="Times,serif" font-size="14.00">Mission_time</text>
</g>
<!-- Cost_scaling_factor_global&#45;&gt;Mission_time -->
<g id="edge12" class="edge">
<title>Cost_scaling_factor_global&#45;&gt;Mission_time</title>
<path fill="none" stroke="blue" d="M1232.93,-942.46C1242.14,-938.66 1251.05,-934.07 1259,-928.54 1280.89,-913.32 1278.1,-901.17 1295,-880.54 1304.78,-868.61 1316.07,-855.82 1325.83,-845.05"/>
<polygon fill="blue" stroke="blue" points="1328.47,-847.35 1332.63,-837.6 1323.3,-842.63 1328.47,-847.35"/>
</g>
<!-- Battery_percentage -->
<g id="node26" class="node">
<title>Battery_percentage</title>
<text text-anchor="middle" x="1521" y="-1281.84" font-family="Times,serif" font-size="14.00">Battery_percentage</text>
</g>
<!-- Cost_scaling_factor_global&#45;&gt;Battery_percentage -->
<g id="edge9" class="edge">
<title>Cost_scaling_factor_global&#45;&gt;Battery_percentage</title>
<path fill="none" stroke="blue" d="M1252.8,-950.16C1303.64,-950.31 1363.25,-959.21 1406,-992.54 1491.09,-1058.9 1512.75,-1197.5 1518.2,-1257.2"/>
<polygon fill="blue" stroke="blue" points="1514.73,-1257.71 1519.04,-1267.39 1521.7,-1257.14 1514.73,-1257.71"/>
</g>
<!-- Mission_success -->
<g id="node27" class="node">
<title>Mission_success</title>
<text text-anchor="middle" x="1521" y="-343.84" font-family="Times,serif" font-size="14.00">Mission_success</text>
</g>
<!-- Cost_scaling_factor_global&#45;&gt;Mission_success -->
<g id="edge52" class="edge">
<title>Cost_scaling_factor_global&#45;&gt;Mission_success</title>
<path fill="none" stroke="blue" d="M1242.74,-942.46C1298.46,-926.63 1366.28,-897.82 1406,-846.54 1464.57,-770.94 1505.23,-469.75 1516.7,-375.73"/>
<polygon fill="blue" stroke="blue" points="1520.21,-375.91 1517.93,-365.56 1513.26,-375.07 1520.21,-375.91"/>
</g>
<!-- Update_frequency_global -->
<g id="node2" class="node">
<title>Update_frequency_global</title>
<text text-anchor="middle" x="903" y="-1194.84" font-family="Times,serif" font-size="14.00">Update_frequency_global</text>
</g>
<!-- Traveled_distance -->
<g id="node24" class="node">
<title>Traveled_distance</title>
<text text-anchor="middle" x="1150" y="-1200.84" font-family="Times,serif" font-size="14.00">Traveled_distance</text>
</g>
<!-- Update_frequency_global&#45;&gt;Traveled_distance -->
<g id="edge58" class="edge">
<title>Update_frequency_global&#45;&gt;Traveled_distance</title>
<path fill="none" stroke="blue" d="M1001.53,-1200.93C1023.09,-1201.46 1045.73,-1202.01 1066.62,-1202.53"/>
<polygon fill="blue" stroke="blue" points="1066.64,-1206.03 1076.72,-1202.77 1066.81,-1199.03 1066.64,-1206.03"/>
</g>
<!-- Publish_frequency_global -->
<g id="node3" class="node">
<title>Publish_frequency_global</title>
<text text-anchor="middle" x="464.5" y="-625.84" font-family="Times,serif" font-size="14.00">Publish_frequency_global</text>
</g>
<!-- Error_rotating_goal -->
<g id="node22" class="node">
<title>Error_rotating_goal</title>
<text text-anchor="middle" x="686.5" y="-522.84" font-family="Times,serif" font-size="14.00">Error_rotating_goal</text>
</g>
<!-- Publish_frequency_global&#45;&gt;Error_rotating_goal -->
<g id="edge64" class="edge">
<title>Publish_frequency_global&#45;&gt;Error_rotating_goal</title>
<path fill="none" stroke="blue" d="M500.02,-611.49C528.67,-596.71 570.64,-575.54 608,-558.54 615.35,-555.2 623.15,-551.81 630.86,-548.54"/>
<polygon fill="blue" stroke="blue" points="632.32,-551.72 640.19,-544.62 629.61,-545.26 632.32,-551.72"/>
</g>
<!-- Publish_frequency_global&#45;&gt;Traveled_distance -->
<g id="edge41" class="edge">
<title>Publish_frequency_global&#45;&gt;Traveled_distance</title>
<path fill="none" stroke="blue" d="M485.16,-647.56C535.24,-694.02 670.36,-822.85 765,-945.54 783.53,-969.57 775.75,-986.72 801,-1003.54 877.43,-1054.48 936.77,-975.06 1005,-1036.54 1050.49,-1077.54 998.77,-1125.19 1041,-1169.54 1048.49,-1177.41 1057.77,-1183.52 1067.71,-1188.25"/>
<polygon fill="blue" stroke="blue" points="1066.42,-1191.5 1076.99,-1192.22 1069.17,-1185.07 1066.42,-1191.5"/>
</g>
<!-- Publish_frequency_global&#45;&gt;Battery_percentage -->
<g id="edge54" class="edge">
<title>Publish_frequency_global&#45;&gt;Battery_percentage</title>
<path fill="none" stroke="blue" d="M477.31,-647.64C499.87,-683.18 548.9,-765.27 572,-841.54 609.9,-966.69 534.85,-1025.16 608,-1133.54 652.63,-1199.67 702.26,-1171.27 765,-1220.54 783.55,-1235.11 780.04,-1248.72 801,-1259.54 1006.22,-1365.58 1290.16,-1331.98 1431.99,-1305.16"/>
<polygon fill="blue" stroke="blue" points="1432.79,-1308.57 1441.95,-1303.24 1431.47,-1301.69 1432.79,-1308.57"/>
</g>
<!-- Publish_frequency_global&#45;&gt;Mission_success -->
<g id="edge43" class="edge">
<title>Publish_frequency_global&#45;&gt;Mission_success</title>
<path fill="none" stroke="blue" d="M542.12,-611.46C627.71,-591.06 755.59,-559.88 765,-553.54 787.41,-538.45 780.16,-521.75 801,-504.54 812.38,-495.14 1026.76,-394.43 1041,-390.54 1179.33,-352.78 1347.64,-346.33 1443.45,-346.18"/>
<polygon fill="blue" stroke="blue" points="1443.62,-349.68 1453.62,-346.19 1443.63,-342.68 1443.62,-349.68"/>
</g>
<!-- Transform_tolerance_global -->
<g id="node4" class="node">
<title>Transform_tolerance_global</title>
<text text-anchor="middle" x="464.5" y="-358.84" font-family="Times,serif" font-size="14.00">Transform_tolerance_global</text>
</g>
<!-- Transform_tolerance_global&#45;&gt;Error_rotating_goal -->
<g id="edge13" class="edge">
<title>Transform_tolerance_global&#45;&gt;Error_rotating_goal</title>
<path fill="none" stroke="blue" d="M555.03,-380.66C560.96,-383.24 566.68,-386.18 572,-389.54 616.2,-417.48 651.58,-468.38 670.47,-499.65"/>
<polygon fill="blue" stroke="blue" points="667.48,-501.47 675.58,-508.3 673.5,-497.91 667.48,-501.47"/>
</g>
<!-- Transform_tolerance_global&#45;&gt;Battery_percentage -->
<g id="edge63" class="edge">
<title>Transform_tolerance_global&#45;&gt;Battery_percentage</title>
<path fill="none" stroke="blue" d="M572.28,-380.36C633.01,-394.39 708.07,-418.66 765,-459.54 903.97,-559.35 937.53,-603.31 1005,-760.54 1051,-867.75 959.97,-936.62 1041,-1020.54 1109.32,-1091.29 1163,-1037.16 1259,-1058.54 1325.09,-1073.26 1351.87,-1057.86 1406,-1098.54 1461.2,-1140.03 1495.45,-1216.77 1510.7,-1257.86"/>
<polygon fill="blue" stroke="blue" points="1507.49,-1259.27 1514.17,-1267.49 1514.07,-1256.9 1507.49,-1259.27"/>
</g>
<!-- Transform_tolerance_global&#45;&gt;Mission_success -->
<g id="edge24" class="edge">
<title>Transform_tolerance_global&#45;&gt;Mission_success</title>
<path fill="none" stroke="blue" d="M518.49,-344.47C663.66,-297.74 1078.69,-182.95 1406,-276.54 1437.81,-285.64 1469.37,-306.46 1491.19,-323.22"/>
<polygon fill="blue" stroke="blue" points="1489.04,-325.97 1499.06,-329.41 1493.37,-320.47 1489.04,-325.97"/>
</g>
<!-- Combination_method_global -->
<g id="node5" class="node">
<title>Combination_method_global</title>
<text text-anchor="middle" x="1150" y="-750.84" font-family="Times,serif" font-size="14.00">Combination_method_global</text>
</g>
<!-- Combination_method_global&#45;&gt;Mission_time -->
<g id="edge36" class="edge">
<title>Combination_method_global&#45;&gt;Mission_time</title>
<path fill="none" stroke="blue" d="M1214.31,-772.59C1229.03,-776.99 1244.61,-781.79 1259,-786.54 1269.81,-790.11 1281.27,-794.12 1292.27,-798.07"/>
<polygon fill="blue" stroke="blue" points="1291.19,-801.4 1301.79,-801.52 1293.58,-794.82 1291.19,-801.4"/>
</g>
<!-- Cost_scaling_factor_local -->
<g id="node6" class="node">
<title>Cost_scaling_factor_local</title>
<text text-anchor="middle" x="903" y="-972.84" font-family="Times,serif" font-size="14.00">Cost_scaling_factor_local</text>
</g>
<!-- Cost_scaling_factor_local&#45;&gt;Traveled_distance -->
<g id="edge57" class="edge">
<title>Cost_scaling_factor_local&#45;&gt;Traveled_distance</title>
<path fill="none" stroke="blue" d="M987.3,-994.56C993.87,-998.37 999.91,-1002.97 1005,-1008.54 1055.32,-1063.65 990.17,-1117.91 1041,-1172.54 1048.39,-1180.49 1057.66,-1186.5 1067.64,-1191.03"/>
<polygon fill="blue" stroke="blue" points="1066.38,-1194.3 1076.97,-1194.79 1069,-1187.8 1066.38,-1194.3"/>
</g>
<!-- Cost_scaling_factor_local&#45;&gt;Mission_time -->
<g id="edge46" class="edge">
<title>Cost_scaling_factor_local&#45;&gt;Mission_time</title>
<path fill="none" stroke="blue" d="M994.86,-958.49C998.54,-955.87 1001.96,-952.91 1005,-949.54 1072.04,-875.4 964.87,-792.32 1041,-727.54 1114.79,-664.76 1169.64,-690.1 1259,-727.54 1290.56,-740.77 1316.67,-770.96 1332.61,-793.16"/>
<polygon fill="blue" stroke="blue" points="1329.83,-795.3 1338.4,-801.53 1335.58,-791.31 1329.83,-795.3"/>
</g>
<!-- Inflation_radius_local -->
<g id="node7" class="node">
<title>Inflation_radius_local</title>
<text text-anchor="middle" x="93.5" y="-1465.84" font-family="Times,serif" font-size="14.00">Inflation_radius_local</text>
</g>
<!-- Update_frequency_local -->
<g id="node8" class="node">
<title>Update_frequency_local</title>
<text text-anchor="middle" x="93.5" y="-99.84" font-family="Times,serif" font-size="14.00">Update_frequency_local</text>
</g>
<!-- DWA_failed -->
<g id="node19" class="node">
<title>DWA_failed</title>
<text text-anchor="middle" x="272" y="-1171.84" font-family="Times,serif" font-size="14.00">DWA_failed</text>
</g>
<!-- Update_frequency_local&#45;&gt;DWA_failed -->
<g id="edge51" class="edge">
<title>Update_frequency_local&#45;&gt;DWA_failed</title>
<path fill="none" stroke="blue" d="M99.97,-121.89C116.41,-177.88 165.55,-351.77 187,-499.54 206.54,-634.15 176.69,-982.66 223,-1110.54 228.15,-1124.77 237.48,-1138.54 246.55,-1149.72"/>
<polygon fill="blue" stroke="blue" points="243.91,-1152.01 253.05,-1157.37 249.24,-1147.48 243.91,-1152.01"/>
</g>
<!-- Update_frequency_local&#45;&gt;Error_rotating_goal -->
<g id="edge49" class="edge">
<title>Update_frequency_local&#45;&gt;Error_rotating_goal</title>
<path fill="none" stroke="blue" d="M102.99,-121.73C130.66,-178.91 224.17,-356.44 357,-443.54 429.55,-491.12 527.55,-511.43 597.59,-520.09"/>
<polygon fill="blue" stroke="blue" points="597.37,-523.59 607.71,-521.29 598.19,-516.64 597.37,-523.59"/>
</g>
<!-- Update_frequency_local&#45;&gt;Battery_percentage -->
<g id="edge66" class="edge">
<title>Update_frequency_local&#45;&gt;Battery_percentage</title>
<path fill="none" stroke="blue" d="M146.4,-121.61C331.41,-186.5 950.63,-407.92 1005,-483.54 1070.55,-574.71 964.8,-905.08 1041,-987.54 1074.25,-1023.53 1211.06,-1010.43 1259,-1020.54 1325.25,-1034.52 1353.51,-1017.77 1406,-1060.54 1469.91,-1112.62 1501.47,-1209.79 1513.7,-1257.56"/>
<polygon fill="blue" stroke="blue" points="1510.36,-1258.64 1516.15,-1267.51 1517.16,-1256.96 1510.36,-1258.64"/>
</g>
<!-- Update_frequency_local&#45;&gt;Mission_success -->
<g id="edge55" class="edge">
<title>Update_frequency_local&#45;&gt;Mission_success</title>
<path fill="none" stroke="blue" d="M120.15,-85.24C145.12,-68.46 184.8,-44.45 223,-32.54 325.55,-0.58 356.08,-8.54 463.5,-8.54 463.5,-8.54 463.5,-8.54 1151,-8.54 1265.52,-8.54 1316.73,26.2 1406,-45.54 1492.74,-115.26 1513.51,-258.53 1518.46,-319.3"/>
<polygon fill="blue" stroke="blue" points="1514.97,-319.6 1519.19,-329.32 1521.95,-319.09 1514.97,-319.6"/>
</g>
<!-- Publish_frequency_local -->
<g id="node9" class="node">
<title>Publish_frequency_local</title>
<text text-anchor="middle" x="903" y="-1140.84" font-family="Times,serif" font-size="14.00">Publish_frequency_local</text>
</g>
<!-- Publish_frequency_local&#45;&gt;Traveled_distance -->
<g id="edge67" class="edge">
<title>Publish_frequency_local&#45;&gt;Traveled_distance</title>
<path fill="none" stroke="blue" d="M977.51,-1162.55C1005.62,-1169.43 1037.86,-1177.33 1066.75,-1184.4"/>
<polygon fill="blue" stroke="blue" points="1066.26,-1187.88 1076.81,-1186.86 1067.93,-1181.09 1066.26,-1187.88"/>
</g>
<!-- Combination_method_local -->
<g id="node10" class="node">
<title>Combination_method_local</title>
<text text-anchor="middle" x="464.5" y="-864.84" font-family="Times,serif" font-size="14.00">Combination_method_local</text>
</g>
<!-- Combination_method_local&#45;&gt;Error_rotating_goal -->
<g id="edge22" class="edge">
<title>Combination_method_local&#45;&gt;Error_rotating_goal</title>
<path fill="none" stroke="blue" d="M474.54,-850.4C503.1,-793.19 590.57,-619.03 608,-596.54 621.03,-579.74 638.38,-563.64 653.37,-551.13"/>
<polygon fill="blue" stroke="blue" points="655.88,-553.6 661.41,-544.56 651.45,-548.18 655.88,-553.6"/>
</g>
<!-- Combination_method_local&#45;&gt;Traveled_distance -->
<g id="edge50" class="edge">
<title>Combination_method_local&#45;&gt;Traveled_distance</title>
<path fill="none" stroke="blue" d="M495.87,-886.8C553.49,-920.74 683.41,-993.93 801,-1036.54 888.57,-1068.28 934.17,-1024.06 1005,-1084.54 1037.13,-1111.99 1009.66,-1144.2 1041,-1172.54 1048.69,-1179.5 1057.84,-1184.95 1067.5,-1189.22"/>
<polygon fill="blue" stroke="blue" points="1066.3,-1192.51 1076.89,-1192.95 1068.89,-1186 1066.3,-1192.51"/>
</g>
<!-- Combination_method_local&#45;&gt;Battery_percentage -->
<g id="edge37" class="edge">
<title>Combination_method_local&#45;&gt;Battery_percentage</title>
<path fill="none" stroke="blue" d="M476.3,-886.56C497.3,-922.27 544.05,-1005 572,-1079.54 594.71,-1140.1 569.19,-1168.81 608,-1220.54 667.78,-1300.24 704.9,-1308.28 801,-1334.54 930.69,-1369.99 1274.32,-1361.65 1406,-1334.54 1431.18,-1329.36 1457.66,-1318.36 1478.75,-1308.1"/>
<polygon fill="blue" stroke="blue" points="1480.36,-1311.21 1487.74,-1303.61 1477.23,-1304.94 1480.36,-1311.21"/>
</g>
<!-- Combination_method_local&#45;&gt;Mission_success -->
<g id="edge7" class="edge">
<title>Combination_method_local&#45;&gt;Mission_success</title>
<path fill="none" stroke="blue" d="M471.35,-850.52C486.53,-806.67 531.38,-693.69 608,-634.54 665.66,-590.04 704.62,-628.28 765,-587.54 786.23,-573.22 779.88,-557.03 801,-542.54 854.78,-505.64 1270.19,-405.83 1443.96,-365.16"/>
<polygon fill="blue" stroke="blue" points="1444.86,-368.54 1453.8,-362.85 1443.27,-361.72 1444.86,-368.54"/>
</g>
<!-- Transform_tolerance_local -->
<g id="node11" class="node">
<title>Transform_tolerance_local</title>
<text text-anchor="middle" x="903" y="-918.84" font-family="Times,serif" font-size="14.00">Transform_tolerance_local</text>
</g>
<!-- Transform_tolerance_local&#45;&gt;Traveled_distance -->
<g id="edge70" class="edge">
<title>Transform_tolerance_local&#45;&gt;Traveled_distance</title>
<path fill="none" stroke="blue" d="M994.87,-940.6C998.55,-943.21 1001.96,-946.18 1005,-949.54 1072.31,-1024.03 974.7,-1097.16 1041,-1172.54 1048.22,-1180.75 1057.43,-1186.9 1067.43,-1191.5"/>
<polygon fill="blue" stroke="blue" points="1066.21,-1194.78 1076.79,-1195.3 1068.84,-1188.29 1066.21,-1194.78"/>
</g>
<!-- Transform_tolerance_local&#45;&gt;Mission_time -->
<g id="edge61" class="edge">
<title>Transform_tolerance_local&#45;&gt;Mission_time</title>
<path fill="none" stroke="blue" d="M1005.06,-928.44C1078.08,-929.17 1177.75,-922.77 1259,-890.54 1284.43,-880.46 1308.57,-860.83 1325.51,-844.76"/>
<polygon fill="blue" stroke="blue" points="1328.05,-847.17 1332.76,-837.68 1323.16,-842.16 1328.05,-847.17"/>
</g>
<!-- Transform_tolerance_local&#45;&gt;Battery_percentage -->
<g id="edge10" class="edge">
<title>Transform_tolerance_local&#45;&gt;Battery_percentage</title>
<path fill="none" stroke="blue" d="M994.74,-940.72C998.45,-943.3 1001.9,-946.23 1005,-949.54 1062.15,-1010.78 981.85,-1075.24 1041,-1134.54 1110.74,-1204.46 1162.37,-1157.17 1259,-1177.54 1324.52,-1191.36 1344.36,-1184.38 1406,-1210.54 1436.55,-1223.51 1467.81,-1244.75 1489.85,-1261.32"/>
<polygon fill="blue" stroke="blue" points="1487.75,-1264.12 1497.82,-1267.41 1492,-1258.56 1487.75,-1264.12"/>
</g>
<!-- Transform_tolerance_local&#45;&gt;Mission_success -->
<g id="edge44" class="edge">
<title>Transform_tolerance_local&#45;&gt;Mission_success</title>
<path fill="none" stroke="blue" d="M994.83,-904.46C998.52,-901.85 1001.94,-898.9 1005,-895.54 1069.1,-825.24 972.1,-750.14 1041,-684.54 1100.17,-628.21 1341.45,-690.62 1406,-640.54 1491.26,-574.4 1512.82,-435.68 1518.22,-375.92"/>
<polygon fill="blue" stroke="blue" points="1521.73,-375.97 1519.05,-365.72 1514.75,-375.4 1521.73,-375.97"/>
</g>
<!-- Path_distance_bias -->
<g id="node12" class="node">
<title>Path_distance_bias</title>
<text text-anchor="middle" x="464.5" y="-412.84" font-family="Times,serif" font-size="14.00">Path_distance_bias</text>
</g>
<!-- Path_distance_bias&#45;&gt;Error_rotating_goal -->
<g id="edge30" class="edge">
<title>Path_distance_bias&#45;&gt;Error_rotating_goal</title>
<path fill="none" stroke="blue" d="M540.65,-432.71C551.69,-436.87 562.51,-442.06 572,-448.54 593.44,-463.19 587.32,-478.85 608,-494.54 612.42,-497.9 617.24,-500.96 622.25,-503.75"/>
<polygon fill="blue" stroke="blue" points="620.92,-507 631.42,-508.47 624.13,-500.78 620.92,-507"/>
</g>
<!-- Path_distance_bias&#45;&gt;Mission_time -->
<g id="edge27" class="edge">
<title>Path_distance_bias&#45;&gt;Mission_time</title>
<path fill="none" stroke="blue" d="M540.53,-423.8C601.83,-430.98 690.25,-444.2 765,-466.54 994.93,-535.28 1075.13,-530.33 1259,-684.54 1294.89,-714.65 1322.3,-762.49 1337.12,-792.4"/>
<polygon fill="blue" stroke="blue" points="1333.99,-793.95 1341.49,-801.43 1340.29,-790.91 1333.99,-793.95"/>
</g>
<!-- Path_distance_bias&#45;&gt;Battery_percentage -->
<g id="edge15" class="edge">
<title>Path_distance_bias&#45;&gt;Battery_percentage</title>
<path fill="none" stroke="blue" d="M540.51,-429.01C551.28,-431.87 562.07,-435.34 572,-439.54 589.71,-447.04 590.34,-455.94 608,-463.54 673.75,-491.86 716.66,-446.74 765,-499.54 844.06,-585.92 728.75,-668.39 801,-760.54 861.19,-837.31 943.76,-765.6 1005,-841.54 1066.37,-917.65 972.15,-989.13 1041,-1058.54 1110.26,-1128.37 1163.07,-1074.86 1259,-1096.54 1325.16,-1111.5 1349.76,-1099.63 1406,-1137.54 1452.26,-1168.73 1487.82,-1224.83 1506.18,-1258.28"/>
<polygon fill="blue" stroke="blue" points="1503.3,-1260.32 1511.11,-1267.48 1509.47,-1257.01 1503.3,-1260.32"/>
</g>
<!-- Path_distance_bias&#45;&gt;Mission_success -->
<g id="edge33" class="edge">
<title>Path_distance_bias&#45;&gt;Mission_success</title>
<path fill="none" stroke="blue" d="M540.79,-399.8C608.57,-385.19 711.06,-364.24 801,-350.54 1067.07,-310.04 1138.2,-297.8 1406,-324.54 1418.29,-325.77 1431.21,-327.72 1443.76,-329.99"/>
<polygon fill="blue" stroke="blue" points="1443.25,-333.45 1453.73,-331.86 1444.55,-326.57 1443.25,-333.45"/>
</g>
<!-- Goal_distance_bias -->
<g id="node13" class="node">
<title>Goal_distance_bias</title>
<text text-anchor="middle" x="464.5" y="-1194.84" font-family="Times,serif" font-size="14.00">Goal_distance_bias</text>
</g>
<!-- recovery_executed -->
<g id="node21" class="node">
<title>recovery_executed</title>
<text text-anchor="middle" x="686.5" y="-1102.84" font-family="Times,serif" font-size="14.00">recovery_executed</text>
</g>
<!-- Goal_distance_bias&#45;&gt;recovery_executed -->
<g id="edge32" class="edge">
<title>Goal_distance_bias&#45;&gt;recovery_executed</title>
<path fill="none" stroke="blue" d="M532.66,-1180.53C545.87,-1176.39 559.5,-1171.67 572,-1166.54 597.44,-1156.11 624.72,-1141.8 646.16,-1129.77"/>
<polygon fill="blue" stroke="blue" points="648,-1132.75 654.97,-1124.77 644.54,-1126.66 648,-1132.75"/>
</g>
<!-- Goal_distance_bias&#45;&gt;Traveled_distance -->
<g id="edge25" class="edge">
<title>Goal_distance_bias&#45;&gt;Traveled_distance</title>
<path fill="none" stroke="blue" d="M540.62,-1208.1C644.92,-1220.05 839.44,-1237.55 1005,-1225.54 1025.05,-1224.09 1046.54,-1221.51 1066.65,-1218.65"/>
<polygon fill="blue" stroke="blue" points="1067.32,-1222.09 1076.71,-1217.18 1066.3,-1215.16 1067.32,-1222.09"/>
</g>
<!-- Goal_distance_bias&#45;&gt;Mission_time -->
<g id="edge69" class="edge">
<title>Goal_distance_bias&#45;&gt;Mission_time</title>
<path fill="none" stroke="blue" d="M540.72,-1185.21C552.12,-1180.69 563.05,-1174.64 572,-1166.54 603.04,-1138.48 587.64,-1116.1 608,-1079.54 679.43,-951.31 670.36,-878.46 801,-811.54 881.7,-770.21 914.41,-807.78 1005,-811.54 1021.04,-812.21 1024.96,-813.75 1041,-814.54 1125.13,-818.73 1222.3,-819.66 1284.75,-819.75"/>
<polygon fill="blue" stroke="blue" points="1284.85,-823.25 1294.85,-819.76 1284.85,-816.25 1284.85,-823.25"/>
</g>
<!-- Goal_distance_bias&#45;&gt;Battery_percentage -->
<g id="edge47" class="edge">
<title>Goal_distance_bias&#45;&gt;Battery_percentage</title>
<path fill="none" stroke="blue" d="M474.79,-1216.81C494.19,-1252.95 542.67,-1333.43 608,-1372.54 683.01,-1417.45 713.99,-1402.06 801,-1410.54 934.81,-1423.59 1283.01,-1464.84 1406,-1410.54 1451.05,-1390.66 1485.99,-1343.21 1504.74,-1312.82"/>
<polygon fill="blue" stroke="blue" points="1507.89,-1314.37 1510.03,-1303.99 1501.89,-1310.77 1507.89,-1314.37"/>
</g>
<!-- Goal_distance_bias&#45;&gt;Mission_success -->
<g id="edge65" class="edge">
<title>Goal_distance_bias&#45;&gt;Mission_success</title>
<path fill="none" stroke="blue" d="M514.04,-1180.46C535.29,-1170.02 558.43,-1154.69 572,-1133.54 645.46,-1019.02 546.82,-951.07 608,-829.54 651.12,-743.89 700.75,-752.73 765,-681.54 782.63,-662.01 779.39,-649.55 801,-634.54 844.71,-604.19 1208.92,-512.54 1259,-494.54 1325.57,-470.62 1344.61,-468.68 1406,-433.54 1437.04,-415.78 1469.31,-390.72 1491.55,-372.23"/>
<polygon fill="blue" stroke="blue" points="1493.87,-374.86 1499.28,-365.74 1489.37,-369.5 1493.87,-374.86"/>
</g>
<!-- Occdist_scale -->
<g id="node14" class="node">
<title>Occdist_scale</title>
<text text-anchor="middle" x="93.5" y="-1411.84" font-family="Times,serif" font-size="14.00">Occdist_scale</text>
</g>
<!-- Occdist_scale&#45;&gt;DWA_failed -->
<g id="edge17" class="edge">
<title>Occdist_scale&#45;&gt;DWA_failed</title>
<path fill="none" stroke="blue" d="M107.77,-1397.5C138.62,-1355.55 215.33,-1251.24 251.52,-1202.03"/>
<polygon fill="blue" stroke="blue" points="254.47,-1203.92 257.58,-1193.79 248.84,-1199.77 254.47,-1203.92"/>
</g>
<!-- DWA_new_plan -->
<g id="node20" class="node">
<title>DWA_new_plan</title>
<text text-anchor="middle" x="464.5" y="-1102.84" font-family="Times,serif" font-size="14.00">DWA_new_plan</text>
</g>
<!-- Occdist_scale&#45;&gt;DWA_new_plan -->
<g id="edge31" class="edge">
<title>Occdist_scale&#45;&gt;DWA_new_plan</title>
<path fill="none" stroke="blue" d="M118.25,-1397.29C162.15,-1362.75 257.28,-1283.94 321,-1202.54 341.12,-1176.85 331.52,-1158.94 357,-1138.54 367.27,-1130.32 379.61,-1124.21 392.21,-1119.67"/>
<polygon fill="blue" stroke="blue" points="393.45,-1122.94 401.85,-1116.49 391.26,-1116.29 393.45,-1122.94"/>
</g>
<!-- Occdist_scale&#45;&gt;recovery_executed -->
<g id="edge48" class="edge">
<title>Occdist_scale&#45;&gt;recovery_executed</title>
<path fill="none" stroke="blue" d="M150.2,-1433.1C172.58,-1439.3 198.78,-1445.48 223,-1448.54 266.21,-1454 280.29,-1464.02 321,-1448.54 487.9,-1385.11 621.98,-1202.71 668.18,-1133.56"/>
<polygon fill="blue" stroke="blue" points="671.27,-1135.22 673.87,-1124.95 665.43,-1131.37 671.27,-1135.22"/>
</g>
<!-- Occdist_scale&#45;&gt;Mission_time -->
<g id="edge16" class="edge">
<title>Occdist_scale&#45;&gt;Mission_time</title>
<path fill="none" stroke="blue" d="M136.59,-1397.52C186.93,-1373.99 270.7,-1328.28 321,-1265.54 348.98,-1230.64 322.5,-1200.02 357,-1171.54 431.84,-1109.78 505.37,-1204.09 572,-1133.54 665.42,-1034.63 516.54,-930.27 608,-829.54 667.01,-764.55 713.72,-796.93 801,-787.54 975.39,-768.79 1182.24,-793.48 1284.95,-808.89"/>
<polygon fill="blue" stroke="blue" points="1284.45,-812.35 1294.86,-810.39 1285.5,-805.43 1284.45,-812.35"/>
</g>
<!-- Occdist_scale&#45;&gt;Battery_percentage -->
<g id="edge3" class="edge">
<title>Occdist_scale&#45;&gt;Battery_percentage</title>
<path fill="none" stroke="blue" d="M150.01,-1427.21C162.63,-1431.08 175.65,-1436.1 187,-1442.54 276.7,-1493.48 265.76,-1552.43 357,-1600.54 399.92,-1623.17 414.98,-1624.54 463.5,-1624.54 463.5,-1624.54 463.5,-1624.54 1151,-1624.54 1264.83,-1624.54 1315.98,-1670.22 1406,-1600.54 1498.17,-1529.2 1515.89,-1376.52 1519.25,-1313.56"/>
<polygon fill="blue" stroke="blue" points="1522.74,-1313.72 1519.7,-1303.57 1515.75,-1313.41 1522.74,-1313.72"/>
</g>
<!-- Occdist_scale&#45;&gt;Mission_success -->
<g id="edge19" class="edge">
<title>Occdist_scale&#45;&gt;Mission_success</title>
<path fill="none" stroke="blue" d="M102.94,-1397.27C120.73,-1358.12 162.47,-1262.92 187,-1179.54 295.01,-812.46 91.33,-610.92 357,-335.54 637.01,-45.3 856.1,-218.76 1259,-236.54 1324.52,-239.44 1345.57,-224.05 1406,-249.54 1443.43,-265.33 1477.49,-298.15 1498.44,-321.45"/>
<polygon fill="blue" stroke="blue" points="1496.06,-324.05 1505.28,-329.25 1501.32,-319.43 1496.06,-324.05"/>
</g>
<!-- Stop_time_buffer -->
<g id="node15" class="node">
<title>Stop_time_buffer</title>
<text text-anchor="middle" x="93.5" y="-1519.84" font-family="Times,serif" font-size="14.00">Stop_time_buffer</text>
</g>
<!-- yaw_goal_tolerance -->
<g id="node16" class="node">
<title>yaw_goal_tolerance</title>
<text text-anchor="middle" x="93.5" y="-522.84" font-family="Times,serif" font-size="14.00">yaw_goal_tolerance</text>
</g>
<!-- yaw_goal_tolerance&#45;&gt;DWA_failed -->
<g id="edge62" class="edge">
<title>yaw_goal_tolerance&#45;&gt;DWA_failed</title>
<path fill="none" stroke="blue" d="M95.73,-544.59C101.29,-618.2 128.12,-901.65 223,-1110.54 229.35,-1124.52 239.04,-1138.43 248.06,-1149.77"/>
<polygon fill="blue" stroke="blue" points="245.39,-1152.04 254.45,-1157.54 250.8,-1147.59 245.39,-1152.04"/>
</g>
<!-- yaw_goal_tolerance&#45;&gt;Error_rotating_goal -->
<g id="edge56" class="edge">
<title>yaw_goal_tolerance&#45;&gt;Error_rotating_goal</title>
<path fill="none" stroke="blue" d="M171.16,-526.54C280.75,-526.54 481.73,-526.54 597.34,-526.54"/>
<polygon fill="blue" stroke="blue" points="597.57,-530.04 607.57,-526.54 597.57,-523.04 597.57,-530.04"/>
</g>
<!-- yaw_goal_tolerance&#45;&gt;Mission_time -->
<g id="edge18" class="edge">
<title>yaw_goal_tolerance&#45;&gt;Mission_time</title>
<path fill="none" stroke="blue" d="M111.01,-508.43C149.39,-467.86 249.54,-370.5 357,-335.54 452.34,-304.53 904.01,-316.45 1005,-352.54 1138.26,-400.17 1176.69,-429.43 1259,-544.54 1315.2,-623.15 1338.03,-738.79 1345.91,-791.5"/>
<polygon fill="blue" stroke="blue" points="1342.46,-792.07 1347.34,-801.47 1349.39,-791.08 1342.46,-792.07"/>
</g>
<!-- yaw_goal_tolerance&#45;&gt;Battery_percentage -->
<g id="edge6" class="edge">
<title>yaw_goal_tolerance&#45;&gt;Battery_percentage</title>
<path fill="none" stroke="blue" d="M95,-544.64C97.83,-625.2 115.78,-958.02 223,-1202.54 252.34,-1269.46 282.56,-1272.4 321,-1334.54 339.61,-1364.63 331.45,-1381.07 357,-1405.54 471.99,-1515.7 526.27,-1548.54 685.5,-1548.54 685.5,-1548.54 685.5,-1548.54 1151,-1548.54 1265.17,-1548.54 1312.92,-1583.65 1406,-1517.54 1475.69,-1468.05 1504.78,-1363.8 1515.11,-1313.65"/>
<polygon fill="blue" stroke="blue" points="1518.55,-1314.3 1517.04,-1303.81 1511.68,-1312.95 1518.55,-1314.3"/>
</g>
<!-- yaw_goal_tolerance&#45;&gt;Mission_success -->
<g id="edge39" class="edge">
<title>yaw_goal_tolerance&#45;&gt;Mission_success</title>
<path fill="none" stroke="blue" d="M97.36,-508.16C109.26,-434.31 157.25,-160.65 223,-108.54 341.53,-14.62 750.77,-62.54 902,-62.54 902,-62.54 902,-62.54 1151,-62.54 1264.83,-62.54 1313.78,-19.81 1406,-86.54 1483.93,-142.93 1509.25,-264.33 1516.92,-319.38"/>
<polygon fill="blue" stroke="blue" points="1513.47,-320 1518.23,-329.47 1520.41,-319.1 1513.47,-320"/>
</g>
<!-- xy_goal_tolerance -->
<g id="node17" class="node">
<title>xy_goal_tolerance</title>
<text text-anchor="middle" x="93.5" y="-1148.84" font-family="Times,serif" font-size="14.00">xy_goal_tolerance</text>
</g>
<!-- xy_goal_tolerance&#45;&gt;DWA_failed -->
<g id="edge60" class="edge">
<title>xy_goal_tolerance&#45;&gt;DWA_failed</title>
<path fill="none" stroke="blue" d="M165.02,-1161.73C180.78,-1163.79 197.32,-1165.94 212.53,-1167.92"/>
<polygon fill="blue" stroke="blue" points="212.45,-1171.44 222.82,-1169.27 213.36,-1164.5 212.45,-1171.44"/>
</g>
<!-- xy_goal_tolerance&#45;&gt;DWA_new_plan -->
<g id="edge45" class="edge">
<title>xy_goal_tolerance&#45;&gt;DWA_new_plan</title>
<path fill="none" stroke="blue" d="M165.21,-1143.73C230.27,-1135.62 326.29,-1123.65 391.69,-1115.5"/>
<polygon fill="blue" stroke="blue" points="392.42,-1118.93 401.91,-1114.22 391.56,-1111.99 392.42,-1118.93"/>
</g>
<!-- xy_goal_tolerance&#45;&gt;Battery_percentage -->
<g id="edge4" class="edge">
<title>xy_goal_tolerance&#45;&gt;Battery_percentage</title>
<path fill="none" stroke="blue" d="M107.04,-1170.79C129.77,-1203.76 179.46,-1275.34 223,-1334.54 265.45,-1392.26 286.68,-1399.65 321,-1462.54 343.63,-1504.01 319.37,-1533.99 357,-1562.54 415.31,-1606.79 612.31,-1586.54 685.5,-1586.54 685.5,-1586.54 685.5,-1586.54 1151,-1586.54 1264.83,-1586.54 1314.5,-1630.26 1406,-1562.54 1488.08,-1501.8 1511.31,-1371.29 1517.68,-1313.76"/>
<polygon fill="blue" stroke="blue" points="1521.19,-1313.89 1518.72,-1303.59 1514.23,-1313.18 1521.19,-1313.89"/>
</g>
<!-- xy_goal_tolerance&#45;&gt;Mission_success -->
<g id="edge35" class="edge">
<title>xy_goal_tolerance&#45;&gt;Mission_success</title>
<path fill="none" stroke="blue" d="M97.6,-1134.45C109.98,-1061.73 156.74,-783.59 187,-553.54 196.65,-480.19 173.95,-277.94 223,-222.54 426.27,7.01 595.39,-100.54 902,-100.54 902,-100.54 902,-100.54 1151,-100.54 1264.83,-100.54 1311.79,-60.64 1406,-124.54 1474.22,-170.82 1503.92,-270.86 1514.74,-319.65"/>
<polygon fill="blue" stroke="blue" points="1511.33,-320.46 1516.82,-329.52 1518.18,-319.01 1511.33,-320.46"/>
</g>
<!-- min_vel_x -->
<g id="node18" class="node">
<title>min_vel_x</title>
<text text-anchor="middle" x="272" y="-1079.84" font-family="Times,serif" font-size="14.00">min_vel_x</text>
</g>
<!-- min_vel_x&#45;&gt;DWA_new_plan -->
<g id="edge40" class="edge">
<title>min_vel_x&#45;&gt;DWA_new_plan</title>
<path fill="none" stroke="blue" d="M315.28,-1088.65C337.73,-1091.36 365.94,-1094.76 391.7,-1097.88"/>
<polygon fill="blue" stroke="blue" points="391.47,-1101.37 401.81,-1099.1 392.31,-1094.42 391.47,-1101.37"/>
</g>
<!-- min_vel_x&#45;&gt;Battery_percentage -->
<g id="edge2" class="edge">
<title>min_vel_x&#45;&gt;Battery_percentage</title>
<path fill="none" stroke="blue" d="M287.88,-1101.64C297.93,-1114.32 311.1,-1131.91 321,-1148.54 340.32,-1181.01 332.79,-1196.54 357,-1225.54 444.65,-1330.53 481.28,-1352.12 608,-1403.54 772.45,-1470.28 1250.64,-1521.34 1406,-1435.54 1456.12,-1407.87 1491,-1347.91 1508.05,-1312.75"/>
<polygon fill="blue" stroke="blue" points="1511.29,-1314.08 1512.38,-1303.54 1504.95,-1311.1 1511.29,-1314.08"/>
</g>
<!-- min_vel_x&#45;&gt;Mission_success -->
<g id="edge20" class="edge">
<title>min_vel_x&#45;&gt;Mission_success</title>
<path fill="none" stroke="blue" d="M273.76,-1065.39C278.58,-953.47 306.45,-359.78 357,-298.54 517.71,-103.86 649.56,-138.54 902,-138.54 902,-138.54 902,-138.54 1151,-138.54 1264.83,-138.54 1309.32,-102.44 1406,-162.54 1464.61,-198.98 1497.66,-277.8 1511.76,-319.83"/>
<polygon fill="blue" stroke="blue" points="1508.46,-320.99 1514.87,-329.43 1515.12,-318.84 1508.46,-320.99"/>
</g>
<!-- DWA_failed&#45;&gt;DWA_new_plan -->
<g id="edge73" class="edge">
<title>DWA_failed&#45;&gt;DWA_new_plan</title>
<path fill="none" stroke="red" d="M320.69,-1153.32C332.45,-1148.18 345.09,-1142.94 357,-1138.54 368.25,-1134.39 380.31,-1130.37 392.12,-1126.67"/>
<polygon fill="red" stroke="red" points="319.21,-1150.15 311.49,-1157.4 322.05,-1156.55 319.21,-1150.15"/>
<polygon fill="red" stroke="red" points="393.45,-1129.92 401.97,-1123.63 391.38,-1123.23 393.45,-1129.92"/>
</g>
<!-- RNS -->
<g id="node23" class="node">
<title>RNS</title>
<text text-anchor="middle" x="903" y="-864.84" font-family="Times,serif" font-size="14.00">RNS</text>
</g>
<!-- DWA_failed&#45;&gt;RNS -->
<g id="edge76" class="edge">
<title>DWA_failed&#45;&gt;RNS</title>
<path fill="none" stroke="red" d="M304.11,-1199.53C319.2,-1209.68 338.12,-1220.35 357,-1225.54 449.13,-1250.89 478.8,-1246.62 572,-1225.54 664.68,-1204.58 708.4,-1209.87 765,-1133.54 828.72,-1047.61 729.67,-975.27 801,-895.54 817.72,-876.86 845.8,-870.48 868.11,-868.56"/>
<polygon fill="red" stroke="red" points="305.9,-1196.51 295.69,-1193.66 301.89,-1202.25 305.9,-1196.51"/>
<polygon fill="red" stroke="red" points="868.44,-872.05 878.21,-867.96 868.02,-865.06 868.44,-872.05"/>
</g>
<!-- DWA_failed&#45;&gt;Traveled_distance -->
<g id="edge1" class="edge">
<title>DWA_failed&#45;&gt;Traveled_distance</title>
<path fill="none" stroke="blue" d="M287.42,-1193.83C302.57,-1211.42 328.18,-1236.88 357,-1247.54 446.62,-1280.7 477.46,-1261.44 572,-1247.54 660.61,-1234.52 696.47,-1247.21 765,-1189.54 792.37,-1166.51 770.57,-1136.35 801,-1117.54 878.13,-1069.88 924.69,-1075.46 1005,-1117.54 1029.9,-1130.59 1018.44,-1152.77 1041,-1169.54 1049.01,-1175.5 1058.07,-1180.46 1067.46,-1184.6"/>
<polygon fill="blue" stroke="blue" points="1066.35,-1187.93 1076.93,-1188.47 1069,-1181.45 1066.35,-1187.93"/>
</g>
<!-- DWA_failed&#45;&gt;Battery_percentage -->
<g id="edge23" class="edge">
<title>DWA_failed&#45;&gt;Battery_percentage</title>
<path fill="none" stroke="blue" d="M283.14,-1193.55C323.77,-1263.14 482.54,-1510.54 685.5,-1510.54 685.5,-1510.54 685.5,-1510.54 1151,-1510.54 1264.83,-1510.54 1310.43,-1548.39 1406,-1486.54 1468.65,-1446 1500.44,-1358.26 1513.14,-1313.31"/>
<polygon fill="blue" stroke="blue" points="1516.53,-1314.19 1515.77,-1303.63 1509.77,-1312.36 1516.53,-1314.19"/>
</g>
<!-- DWA_failed&#45;&gt;Mission_success -->
<g id="edge26" class="edge">
<title>DWA_failed&#45;&gt;Mission_success</title>
<path fill="none" stroke="blue" d="M291.03,-1157.4C301.85,-1145.24 314.71,-1128.26 321,-1110.54 349.85,-1029.31 302.04,-401.96 357,-335.54 424.13,-254.42 1189.79,-204.9 1295,-200.54 1344.29,-198.5 1361.7,-178.84 1406,-200.54 1456.77,-225.42 1491.41,-285 1508.24,-320.2"/>
<polygon fill="blue" stroke="blue" points="1505.14,-321.83 1512.51,-329.43 1511.49,-318.89 1505.14,-321.83"/>
</g>
<!-- DWA_new_plan&#45;&gt;recovery_executed -->
<g id="edge14" class="edge">
<title>DWA_new_plan&#45;&gt;recovery_executed</title>
<path fill="none" stroke="blue" d="M527.07,-1106.54C550.09,-1106.54 576.64,-1106.54 601.34,-1106.54"/>
<polygon fill="blue" stroke="blue" points="601.44,-1110.04 611.44,-1106.54 601.44,-1103.04 601.44,-1110.04"/>
</g>
<!-- DWA_new_plan&#45;&gt;Error_rotating_goal -->
<g id="edge71" class="edge">
<title>DWA_new_plan&#45;&gt;Error_rotating_goal</title>
<path fill="none" stroke="red" d="M482.62,-1079.88C506.71,-1041 550.12,-965.72 572,-895.54 606.86,-783.75 564.59,-743.3 608,-634.54 620.39,-603.51 643.55,-573.04 661.34,-552.41"/>
<polygon fill="red" stroke="red" points="479.56,-1078.18 477.22,-1088.51 485.49,-1081.89 479.56,-1078.18"/>
<polygon fill="red" stroke="red" points="664.11,-554.56 668.1,-544.74 658.86,-549.93 664.11,-554.56"/>
</g>
<!-- DWA_new_plan&#45;&gt;Battery_percentage -->
<g id="edge5" class="edge">
<title>DWA_new_plan&#45;&gt;Battery_percentage</title>
<path fill="none" stroke="blue" d="M511.76,-1124.58C533.16,-1135.18 557.08,-1150.65 572,-1171.54 615.11,-1231.92 554.94,-1282.69 608,-1334.54 639.26,-1365.1 757.49,-1368.3 801,-1372.54 1068.62,-1398.64 1151.27,-1458.64 1406,-1372.54 1441.71,-1360.47 1475.06,-1332.25 1496.34,-1311.2"/>
<polygon fill="blue" stroke="blue" points="1499.1,-1313.39 1503.62,-1303.81 1494.11,-1308.48 1499.1,-1313.39"/>
</g>
<!-- DWA_new_plan&#45;&gt;Mission_success -->
<g id="edge38" class="edge">
<title>DWA_new_plan&#45;&gt;Mission_success</title>
<path fill="none" stroke="blue" d="M476.85,-1088.39C498.6,-1052.77 546.29,-970.66 572,-895.54 599.13,-816.29 558.59,-778.18 608,-710.54 654.93,-646.3 703.8,-675.38 765,-624.54 784.44,-608.4 779.88,-594.41 801,-580.54 801.69,-580.09 1258.21,-450.79 1259,-450.54 1324.81,-430.25 1342.1,-427.22 1406,-401.54 1429.35,-392.16 1454.7,-380.32 1475.56,-370.12"/>
<polygon fill="blue" stroke="blue" points="1477.38,-373.13 1484.8,-365.57 1474.29,-366.85 1477.38,-373.13"/>
</g>
<!-- recovery_executed&#45;&gt;RNS -->
<g id="edge34" class="edge">
<title>recovery_executed&#45;&gt;RNS</title>
<path fill="none" stroke="blue" d="M691.97,-1088.39C703.02,-1047.41 735.59,-947.28 801,-895.54 820.12,-880.42 846.98,-873.73 868.19,-870.79"/>
<polygon fill="blue" stroke="blue" points="868.87,-874.24 878.4,-869.6 868.06,-867.29 868.87,-874.24"/>
</g>
<!-- recovery_executed&#45;&gt;Mission_time -->
<g id="edge72" class="edge">
<title>recovery_executed&#45;&gt;Mission_time</title>
<path fill="none" stroke="red" d="M689.8,-1078.49C696.11,-1022.04 719.16,-895.52 801,-841.54 876.69,-791.62 915.33,-828.15 1005,-841.54 1021.55,-844.02 1024.45,-850.07 1041,-852.54 1136.83,-866.86 1163.59,-869.4 1259,-852.54 1266.57,-851.21 1280.36,-846.58 1294.93,-841.2"/>
<polygon fill="red" stroke="red" points="686.31,-1078.19 688.78,-1088.49 693.28,-1078.9 686.31,-1078.19"/>
<polygon fill="red" stroke="red" points="1296.43,-844.37 1304.56,-837.57 1293.97,-837.82 1296.43,-844.37"/>
</g>
<!-- recovery_executed&#45;&gt;Battery_percentage -->
<g id="edge11" class="edge">
<title>recovery_executed&#45;&gt;Battery_percentage</title>
<path fill="none" stroke="blue" d="M703.58,-1124.78C731.87,-1156.65 788.73,-1219.68 801,-1225.54 910.23,-1277.79 1264.53,-1285.34 1431.46,-1285.91"/>
<polygon fill="blue" stroke="blue" points="1431.69,-1289.41 1441.7,-1285.94 1431.7,-1282.41 1431.69,-1289.41"/>
</g>
<!-- recovery_executed&#45;&gt;Mission_success -->
<g id="edge42" class="edge">
<title>recovery_executed&#45;&gt;Mission_success</title>
<path fill="none" stroke="blue" d="M690.99,-1088.31C701.02,-1039.45 733.69,-903.05 801,-811.54 881.61,-701.95 915.92,-675.05 1041,-621.54 1116.3,-589.33 1339.27,-618.03 1406,-570.54 1473,-522.86 1503.22,-423.92 1514.44,-375.49"/>
<polygon fill="blue" stroke="blue" points="1517.87,-376.2 1516.61,-365.68 1511.03,-374.69 1517.87,-376.2"/>
</g>
<!-- Error_rotating_goal&#45;&gt;RNS -->
<g id="edge75" class="edge">
<title>Error_rotating_goal&#45;&gt;RNS</title>
<path fill="none" stroke="red" d="M704.55,-553.27C722.05,-581.79 748.93,-628.79 765,-672.54 790.73,-742.59 750.68,-781.44 801,-836.54 818.13,-855.3 846.18,-863.14 868.38,-866.37"/>
<polygon fill="red" stroke="red" points="707.47,-551.34 699.23,-544.69 701.53,-555.03 707.47,-551.34"/>
<polygon fill="red" stroke="red" points="868.07,-869.86 878.42,-867.59 868.91,-862.91 868.07,-869.86"/>
</g>
<!-- Error_rotating_goal&#45;&gt;Mission_success -->
<g id="edge8" class="edge">
<title>Error_rotating_goal&#45;&gt;Mission_success</title>
<path fill="none" stroke="blue" d="M703.88,-508.49C724.55,-486.69 762.14,-450.26 801,-428.54 1009.89,-311.85 1305.99,-323.97 1443.87,-337.81"/>
<polygon fill="blue" stroke="blue" points="1443.61,-341.31 1453.92,-338.85 1444.34,-334.34 1443.61,-341.31"/>
</g>
<!-- RNS&#45;&gt;Traveled_distance -->
<g id="edge29" class="edge">
<title>RNS&#45;&gt;Traveled_distance</title>
<path fill="none" stroke="blue" d="M927.79,-867.95C951.03,-868.76 985.64,-873.89 1005,-895.54 1076.6,-975.62 982.8,-1044.26 1041,-1134.54 1054.08,-1154.83 1075.35,-1170.46 1095.57,-1181.75"/>
<polygon fill="blue" stroke="blue" points="1093.97,-1184.87 1104.44,-1186.48 1097.26,-1178.69 1093.97,-1184.87"/>
</g>
<!-- RNS&#45;&gt;Battery_percentage -->
<g id="edge53" class="edge">
<title>RNS&#45;&gt;Battery_percentage</title>
<path fill="none" stroke="blue" d="M927.67,-868.07C950.81,-868.96 985.35,-874.16 1005,-895.54 1066.42,-962.35 976.68,-1032.52 1041,-1096.54 1110.71,-1165.93 1163.35,-1111.66 1259,-1134.54 1325.45,-1150.44 1346.81,-1145.41 1406,-1179.54 1442.81,-1200.77 1477.41,-1235.91 1498.62,-1259.86"/>
<polygon fill="blue" stroke="blue" points="1496.08,-1262.27 1505.29,-1267.52 1501.36,-1257.68 1496.08,-1262.27"/>
</g>
<!-- RNS&#45;&gt;Mission_success -->
<g id="edge68" class="edge">
<title>RNS&#45;&gt;Mission_success</title>
<path fill="none" stroke="blue" d="M909.73,-850.54C924.14,-808.5 966.19,-703.86 1041,-656.54 1179.29,-569.09 1275.24,-706.89 1406,-608.54 1482.69,-550.86 1508.62,-430.65 1516.68,-375.86"/>
<polygon fill="blue" stroke="blue" points="1520.16,-376.19 1518.06,-365.81 1513.23,-375.24 1520.16,-376.19"/>
</g>
<!-- Traveled_distance&#45;&gt;Mission_time -->
<g id="edge74" class="edge">
<title>Traveled_distance&#45;&gt;Mission_time</title>
<path fill="none" stroke="red" d="M1165.04,-1177.32C1201.52,-1106.56 1299.03,-917.44 1335.49,-846.73"/>
<polygon fill="red" stroke="red" points="1161.78,-1176 1160.31,-1186.49 1168,-1179.21 1161.78,-1176"/>
<polygon fill="red" stroke="red" points="1338.74,-848.05 1340.21,-837.56 1332.52,-844.84 1338.74,-848.05"/>
</g>
<!-- Traveled_distance&#45;&gt;Battery_percentage -->
<g id="edge28" class="edge">
<title>Traveled_distance&#45;&gt;Battery_percentage</title>
<path fill="none" stroke="blue" d="M1223.22,-1208.19C1274.86,-1212.1 1345.61,-1220.13 1406,-1236.54 1429.8,-1243.01 1455.1,-1253.49 1475.82,-1263.1"/>
<polygon fill="blue" stroke="blue" points="1474.45,-1266.33 1484.99,-1267.44 1477.44,-1260 1474.45,-1266.33"/>
</g>
<!-- Mission_time&#45;&gt;Battery_percentage -->
<g id="edge21" class="edge">
<title>Mission_time&#45;&gt;Battery_percentage</title>
<path fill="none" stroke="blue" d="M1359.47,-837.62C1370.44,-862.75 1390.59,-909.76 1406,-950.54 1448.5,-1063.08 1492.68,-1199.46 1511.11,-1257.36"/>
<polygon fill="blue" stroke="blue" points="1507.88,-1258.76 1514.24,-1267.24 1514.55,-1256.65 1507.88,-1258.76"/>
</g>
<!-- Mission_time&#45;&gt;Mission_success -->
<g id="edge59" class="edge">
<title>Mission_time&#45;&gt;Mission_success</title>
<path fill="none" stroke="blue" d="M1359.24,-801.33C1370.12,-775.52 1390.36,-726.73 1406,-684.54 1448.13,-570.87 1492.67,-433.4 1511.16,-375.44"/>
<polygon fill="blue" stroke="blue" points="1514.61,-376.16 1514.3,-365.57 1507.94,-374.04 1514.61,-376.16"/>
</g>
</g>
</svg>
