<?xml version="1.0" encoding="UTF-8" standalone="no"?>
<!DOCTYPE svg PUBLIC "-//W3C//DTD SVG 1.1//EN"
 "http://www.w3.org/Graphics/SVG/1.1/DTD/svg11.dtd">
<!-- Generated by graphviz version 2.43.0 (0)
 -->
<!-- Title: %3 Pages: 1 -->
<svg width="1608pt" height="1451pt"
 viewBox="0.00 0.00 1608.00 1450.78" xmlns="http://www.w3.org/2000/svg" xmlns:xlink="http://www.w3.org/1999/xlink">
<g id="graph0" class="graph" transform="scale(1 1) rotate(0) translate(4 1446.78)">
<title>%3</title>
<polygon fill="white" stroke="transparent" points="-4,4 -4,-1446.78 1604,-1446.78 1604,4 -4,4"/>
<!-- Cost_scaling_factor_global -->
<g id="node1" class="node">
<title>Cost_scaling_factor_global</title>
<text text-anchor="middle" x="1150" y="-701.41" font-family="Times,serif" font-size="14.00">Cost_scaling_factor_global</text>
</g>
<!-- Mission_time -->
<g id="node25" class="node">
<title>Mission_time</title>
<text text-anchor="middle" x="1350.5" y="-682.41" font-family="Times,serif" font-size="14.00">Mission_time</text>
</g>
<!-- Cost_scaling_factor_global&#45;&gt;Mission_time -->
<g id="edge24" class="edge">
<title>Cost_scaling_factor_global&#45;&gt;Mission_time</title>
<path fill="none" stroke="blue" d="M1252.58,-695.39C1263.52,-694.34 1274.43,-693.29 1284.77,-692.3"/>
<polygon fill="blue" stroke="blue" points="1285.27,-695.77 1294.89,-691.34 1284.61,-688.8 1285.27,-695.77"/>
</g>
<!-- Update_frequency_global -->
<g id="node2" class="node">
<title>Update_frequency_global</title>
<text text-anchor="middle" x="903" y="-685.41" font-family="Times,serif" font-size="14.00">Update_frequency_global</text>
</g>
<!-- Traveled_distance -->
<g id="node24" class="node">
<title>Traveled_distance</title>
<text text-anchor="middle" x="1150" y="-847.41" font-family="Times,serif" font-size="14.00">Traveled_distance</text>
</g>
<!-- Update_frequency_global&#45;&gt;Traveled_distance -->
<g id="edge30" class="edge">
<title>Update_frequency_global&#45;&gt;Traveled_distance</title>
<path fill="none" stroke="blue" d="M985.53,-707.35C992.64,-711.11 999.28,-715.64 1005,-721.11 1038.54,-753.17 1007.16,-787.36 1041,-819.11 1048.62,-826.26 1057.76,-831.81 1067.46,-836.13"/>
<polygon fill="blue" stroke="blue" points="1066.32,-839.45 1076.9,-839.91 1068.92,-832.95 1066.32,-839.45"/>
</g>
<!-- Publish_frequency_global -->
<g id="node3" class="node">
<title>Publish_frequency_global</title>
<text text-anchor="middle" x="464.5" y="-957.41" font-family="Times,serif" font-size="14.00">Publish_frequency_global</text>
</g>
<!-- Error_rotating_goal -->
<g id="node22" class="node">
<title>Error_rotating_goal</title>
<text text-anchor="middle" x="686.5" y="-1063.41" font-family="Times,serif" font-size="14.00">Error_rotating_goal</text>
</g>
<!-- Publish_frequency_global&#45;&gt;Error_rotating_goal -->
<g id="edge44" class="edge">
<title>Publish_frequency_global&#45;&gt;Error_rotating_goal</title>
<path fill="none" stroke="blue" d="M498.21,-979.13C526.83,-994.65 569.71,-1017.3 608,-1035.11 615.15,-1038.43 622.74,-1041.78 630.26,-1045"/>
<polygon fill="blue" stroke="blue" points="629.15,-1048.32 639.72,-1048.98 631.87,-1041.87 629.15,-1048.32"/>
</g>
<!-- Publish_frequency_global&#45;&gt;Traveled_distance -->
<g id="edge42" class="edge">
<title>Publish_frequency_global&#45;&gt;Traveled_distance</title>
<path fill="none" stroke="blue" d="M563.63,-953.88C696.32,-943.29 925.52,-921.88 1005,-895.11 1022.55,-889.2 1023.72,-880.79 1041,-874.11 1049.34,-870.88 1058.22,-868.07 1067.18,-865.63"/>
<polygon fill="blue" stroke="blue" points="1068.09,-869.01 1076.9,-863.12 1066.34,-862.23 1068.09,-869.01"/>
</g>
<!-- Transform_tolerance_global -->
<g id="node4" class="node">
<title>Transform_tolerance_global</title>
<text text-anchor="middle" x="464.5" y="-1109.41" font-family="Times,serif" font-size="14.00">Transform_tolerance_global</text>
</g>
<!-- Transform_tolerance_global&#45;&gt;Error_rotating_goal -->
<g id="edge8" class="edge">
<title>Transform_tolerance_global&#45;&gt;Error_rotating_goal</title>
<path fill="none" stroke="blue" d="M551.82,-1095.06C566.93,-1091.9 582.66,-1088.61 597.81,-1085.44"/>
<polygon fill="blue" stroke="blue" points="598.59,-1088.86 607.66,-1083.38 597.16,-1082 598.59,-1088.86"/>
</g>
<!-- Combination_method_global -->
<g id="node5" class="node">
<title>Combination_method_global</title>
<text text-anchor="middle" x="1150" y="-755.41" font-family="Times,serif" font-size="14.00">Combination_method_global</text>
</g>
<!-- Combination_method_global&#45;&gt;Mission_time -->
<g id="edge22" class="edge">
<title>Combination_method_global&#45;&gt;Mission_time</title>
<path fill="none" stroke="blue" d="M1231.82,-741.03C1241.08,-738.33 1250.31,-735.36 1259,-732.11 1275.82,-725.82 1293.58,-717.26 1308.87,-709.22"/>
<polygon fill="blue" stroke="blue" points="1310.88,-712.12 1318.04,-704.31 1307.58,-705.95 1310.88,-712.12"/>
</g>
<!-- Cost_scaling_factor_local -->
<g id="node6" class="node">
<title>Cost_scaling_factor_local</title>
<text text-anchor="middle" x="903" y="-593.41" font-family="Times,serif" font-size="14.00">Cost_scaling_factor_local</text>
</g>
<!-- Cost_scaling_factor_local&#45;&gt;Traveled_distance -->
<g id="edge16" class="edge">
<title>Cost_scaling_factor_local&#45;&gt;Traveled_distance</title>
<path fill="none" stroke="blue" d="M987.95,-615.25C994.3,-619.04 1000.12,-623.6 1005,-629.11 1062.03,-693.41 983.37,-755.35 1041,-819.11 1048.28,-827.16 1057.48,-833.23 1067.42,-837.79"/>
<polygon fill="blue" stroke="blue" points="1066.15,-841.05 1076.73,-841.57 1068.79,-834.56 1066.15,-841.05"/>
</g>
<!-- Cost_scaling_factor_local&#45;&gt;Mission_time -->
<g id="edge57" class="edge">
<title>Cost_scaling_factor_local&#45;&gt;Mission_time</title>
<path fill="none" stroke="blue" d="M994.15,-615.12C1080.41,-632.35 1208.38,-657.92 1284.91,-673.21"/>
<polygon fill="blue" stroke="blue" points="1284.41,-676.67 1294.9,-675.2 1285.78,-669.81 1284.41,-676.67"/>
</g>
<!-- Battery_percentage -->
<g id="node26" class="node">
<title>Battery_percentage</title>
<text text-anchor="middle" x="1521" y="-275.41" font-family="Times,serif" font-size="14.00">Battery_percentage</text>
</g>
<!-- Cost_scaling_factor_local&#45;&gt;Battery_percentage -->
<g id="edge26" class="edge">
<title>Cost_scaling_factor_local&#45;&gt;Battery_percentage</title>
<path fill="none" stroke="blue" d="M991.78,-579.11C1131.21,-550.24 1389.34,-495.57 1406,-483.11 1466.15,-438.11 1498.93,-351.49 1512.46,-306.99"/>
<polygon fill="blue" stroke="blue" points="1515.89,-307.73 1515.35,-297.15 1509.18,-305.76 1515.89,-307.73"/>
</g>
<!-- Mission_success -->
<g id="node27" class="node">
<title>Mission_success</title>
<text text-anchor="middle" x="1521" y="-1140.41" font-family="Times,serif" font-size="14.00">Mission_success</text>
</g>
<!-- Cost_scaling_factor_local&#45;&gt;Mission_success -->
<g id="edge34" class="edge">
<title>Cost_scaling_factor_local&#45;&gt;Mission_success</title>
<path fill="none" stroke="blue" d="M999.38,-615.11C1001.35,-616.66 1003.23,-618.32 1005,-620.11 1058.1,-673.77 986.54,-733.83 1041,-786.11 1111.95,-854.21 1163.07,-802.43 1259,-824.11 1325.16,-839.06 1355.34,-820.01 1406,-865.11 1482.37,-933.1 1508.57,-1059.85 1516.7,-1116.04"/>
<polygon fill="blue" stroke="blue" points="1513.24,-1116.56 1518.05,-1125.99 1520.17,-1115.61 1513.24,-1116.56"/>
</g>
<!-- Inflation_radius_local -->
<g id="node7" class="node">
<title>Inflation_radius_local</title>
<text text-anchor="middle" x="93.5" y="-1076.41" font-family="Times,serif" font-size="14.00">Inflation_radius_local</text>
</g>
<!-- Update_frequency_local -->
<g id="node8" class="node">
<title>Update_frequency_local</title>
<text text-anchor="middle" x="93.5" y="-1022.41" font-family="Times,serif" font-size="14.00">Update_frequency_local</text>
</g>
<!-- DWA_failed -->
<g id="node19" class="node">
<title>DWA_failed</title>
<text text-anchor="middle" x="272" y="-801.41" font-family="Times,serif" font-size="14.00">DWA_failed</text>
</g>
<!-- Update_frequency_local&#45;&gt;DWA_failed -->
<g id="edge56" class="edge">
<title>Update_frequency_local&#45;&gt;DWA_failed</title>
<path fill="none" stroke="blue" d="M108.94,-1008.02C140.18,-968.91 214.1,-876.35 250.3,-831.02"/>
<polygon fill="blue" stroke="blue" points="253.1,-833.13 256.6,-823.13 247.63,-828.76 253.1,-833.13"/>
</g>
<!-- Update_frequency_local&#45;&gt;Error_rotating_goal -->
<g id="edge40" class="edge">
<title>Update_frequency_local&#45;&gt;Error_rotating_goal</title>
<path fill="none" stroke="blue" d="M166.74,-1044.28C173.73,-1046.9 180.59,-1049.83 187,-1053.11 205.05,-1062.33 205.59,-1070.72 223,-1081.11 278.88,-1114.45 293.32,-1126.71 357,-1140.11 450.51,-1159.78 484.95,-1179.52 572,-1140.11 594.09,-1130.11 588.28,-1113.22 608,-1099.11 612.78,-1095.69 617.98,-1092.56 623.34,-1089.7"/>
<polygon fill="blue" stroke="blue" points="625.09,-1092.74 632.49,-1085.15 621.98,-1086.47 625.09,-1092.74"/>
</g>
<!-- Update_frequency_local&#45;&gt;Battery_percentage -->
<g id="edge39" class="edge">
<title>Update_frequency_local&#45;&gt;Battery_percentage</title>
<path fill="none" stroke="blue" d="M105.3,-1007.99C124.29,-975.43 163.85,-904.41 187,-840.11 265.08,-623.22 172.03,-487.66 357,-350.11 693.22,-100.09 1246.71,-208.17 1445.79,-258.55"/>
<polygon fill="blue" stroke="blue" points="1445.01,-261.96 1455.56,-261.05 1446.74,-255.18 1445.01,-261.96"/>
</g>
<!-- Update_frequency_local&#45;&gt;Mission_success -->
<g id="edge53" class="edge">
<title>Update_frequency_local&#45;&gt;Mission_success</title>
<path fill="none" stroke="blue" d="M174.09,-1044.25C178.69,-1046.82 183.04,-1049.76 187,-1053.11 203.58,-1067.14 339.99,-1391.6 357,-1405.11 394.99,-1435.29 414.98,-1429.11 463.5,-1429.11 463.5,-1429.11 463.5,-1429.11 1151,-1429.11 1264.83,-1429.11 1313.78,-1471.84 1406,-1405.11 1483.93,-1348.72 1509.25,-1227.32 1516.92,-1172.27"/>
<polygon fill="blue" stroke="blue" points="1520.41,-1172.55 1518.23,-1162.19 1513.47,-1171.65 1520.41,-1172.55"/>
</g>
<!-- Publish_frequency_local -->
<g id="node9" class="node">
<title>Publish_frequency_local</title>
<text text-anchor="middle" x="903" y="-831.41" font-family="Times,serif" font-size="14.00">Publish_frequency_local</text>
</g>
<!-- Publish_frequency_local&#45;&gt;Traveled_distance -->
<g id="edge55" class="edge">
<title>Publish_frequency_local&#45;&gt;Traveled_distance</title>
<path fill="none" stroke="blue" d="M997.32,-841.2C1020.19,-842.7 1044.5,-844.28 1066.8,-845.74"/>
<polygon fill="blue" stroke="blue" points="1066.69,-849.24 1076.89,-846.4 1067.14,-842.26 1066.69,-849.24"/>
</g>
<!-- Combination_method_local -->
<g id="node10" class="node">
<title>Combination_method_local</title>
<text text-anchor="middle" x="464.5" y="-701.41" font-family="Times,serif" font-size="14.00">Combination_method_local</text>
</g>
<!-- Combination_method_local&#45;&gt;Error_rotating_goal -->
<g id="edge12" class="edge">
<title>Combination_method_local&#45;&gt;Error_rotating_goal</title>
<path fill="none" stroke="blue" d="M562.31,-723.36C565.82,-725.93 569.08,-728.84 572,-732.11 651.15,-820.78 552.52,-891.99 608,-997.11 617.5,-1015.1 633.56,-1030.77 648.61,-1042.7"/>
<polygon fill="blue" stroke="blue" points="646.73,-1045.67 656.81,-1048.93 650.97,-1040.09 646.73,-1045.67"/>
</g>
<!-- Combination_method_local&#45;&gt;Traveled_distance -->
<g id="edge23" class="edge">
<title>Combination_method_local&#45;&gt;Traveled_distance</title>
<path fill="none" stroke="blue" d="M568.71,-709.3C715.12,-716.04 969.4,-730.9 1005,-754.11 1032.66,-772.15 1015.25,-798.43 1041,-819.11 1048.83,-825.4 1057.87,-830.45 1067.32,-834.51"/>
<polygon fill="blue" stroke="blue" points="1066.28,-837.87 1076.87,-838.25 1068.83,-831.35 1066.28,-837.87"/>
</g>
<!-- Combination_method_local&#45;&gt;Battery_percentage -->
<g id="edge43" class="edge">
<title>Combination_method_local&#45;&gt;Battery_percentage</title>
<path fill="none" stroke="blue" d="M474.61,-686.86C507.96,-622.13 630.4,-402.15 801,-303.11 1037.63,-165.73 1147.51,-99.37 1406,-189.11 1442.65,-201.83 1476.43,-231.77 1497.54,-253.64"/>
<polygon fill="blue" stroke="blue" points="1495.06,-256.11 1504.47,-260.99 1500.16,-251.31 1495.06,-256.11"/>
</g>
<!-- Combination_method_local&#45;&gt;Mission_success -->
<g id="edge2" class="edge">
<title>Combination_method_local&#45;&gt;Mission_success</title>
<path fill="none" stroke="blue" d="M560.78,-723.28C564.8,-725.86 568.57,-728.79 572,-732.11 613.53,-772.33 577.22,-808.17 608,-857.11 657.78,-936.25 713.15,-919.31 765,-997.11 792.13,-1037.81 762.02,-1071.56 801,-1101.11 851.29,-1139.23 1269.29,-1143.97 1443.86,-1144.27"/>
<polygon fill="blue" stroke="blue" points="1443.99,-1147.77 1454,-1144.28 1444,-1140.77 1443.99,-1147.77"/>
</g>
<!-- Transform_tolerance_local -->
<g id="node11" class="node">
<title>Transform_tolerance_local</title>
<text text-anchor="middle" x="903" y="-961.41" font-family="Times,serif" font-size="14.00">Transform_tolerance_local</text>
</g>
<!-- Transform_tolerance_local&#45;&gt;Traveled_distance -->
<g id="edge65" class="edge">
<title>Transform_tolerance_local&#45;&gt;Traveled_distance</title>
<path fill="none" stroke="blue" d="M979.96,-947C988.82,-943.19 997.4,-938.61 1005,-933.11 1027.18,-917.05 1018.67,-898.96 1041,-883.11 1049.01,-877.42 1058.04,-872.73 1067.38,-868.87"/>
<polygon fill="blue" stroke="blue" points="1068.7,-872.11 1076.79,-865.28 1066.2,-865.57 1068.7,-872.11"/>
</g>
<!-- Transform_tolerance_local&#45;&gt;Mission_time -->
<g id="edge3" class="edge">
<title>Transform_tolerance_local&#45;&gt;Mission_time</title>
<path fill="none" stroke="blue" d="M1005.34,-950.21C1096.05,-935.13 1220.5,-909.59 1259,-878.11 1310.94,-835.64 1334.78,-756.46 1344.21,-714.27"/>
<polygon fill="blue" stroke="blue" points="1347.66,-714.9 1346.31,-704.39 1340.81,-713.44 1347.66,-714.9"/>
</g>
<!-- Transform_tolerance_local&#45;&gt;Battery_percentage -->
<g id="edge10" class="edge">
<title>Transform_tolerance_local&#45;&gt;Battery_percentage</title>
<path fill="none" stroke="blue" d="M928.97,-946.78C952.42,-928.15 986.57,-897.13 1005,-862.11 1043.8,-788.37 986.86,-741.45 1041,-678.11 1153.19,-546.87 1280.58,-663.76 1406,-545.11 1476.49,-478.43 1505.5,-360.97 1515.5,-307.3"/>
<polygon fill="blue" stroke="blue" points="1518.95,-307.9 1517.26,-297.45 1512.06,-306.68 1518.95,-307.9"/>
</g>
<!-- Transform_tolerance_local&#45;&gt;Mission_success -->
<g id="edge21" class="edge">
<title>Transform_tolerance_local&#45;&gt;Mission_success</title>
<path fill="none" stroke="blue" d="M1005.44,-961.37C1110.74,-961.47 1277.69,-973 1406,-1035.11 1445.42,-1054.19 1480.07,-1091.97 1500.54,-1117.64"/>
<polygon fill="blue" stroke="blue" points="1498.01,-1120.09 1506.92,-1125.83 1503.54,-1115.79 1498.01,-1120.09"/>
</g>
<!-- Path_distance_bias -->
<g id="node12" class="node">
<title>Path_distance_bias</title>
<text text-anchor="middle" x="464.5" y="-1201.41" font-family="Times,serif" font-size="14.00">Path_distance_bias</text>
</g>
<!-- Path_distance_bias&#45;&gt;Error_rotating_goal -->
<g id="edge37" class="edge">
<title>Path_distance_bias&#45;&gt;Error_rotating_goal</title>
<path fill="none" stroke="blue" d="M540.58,-1191.19C551.94,-1186.74 562.88,-1180.87 572,-1173.11 599.86,-1149.41 581.36,-1124.17 608,-1099.11 611.37,-1095.94 615.1,-1093.06 619.05,-1090.45"/>
<polygon fill="blue" stroke="blue" points="621.16,-1093.27 627.98,-1085.17 617.59,-1087.25 621.16,-1093.27"/>
</g>
<!-- Path_distance_bias&#45;&gt;Mission_time -->
<g id="edge60" class="edge">
<title>Path_distance_bias&#45;&gt;Mission_time</title>
<path fill="none" stroke="blue" d="M540.51,-1200.08C696.52,-1185.58 1058.14,-1130.37 1259,-924.11 1317.21,-864.34 1338.78,-763.35 1346.09,-714.39"/>
<polygon fill="blue" stroke="blue" points="1349.6,-714.61 1347.52,-704.22 1342.67,-713.64 1349.6,-714.61"/>
</g>
<!-- Path_distance_bias&#45;&gt;Battery_percentage -->
<g id="edge36" class="edge">
<title>Path_distance_bias&#45;&gt;Battery_percentage</title>
<path fill="none" stroke="blue" d="M524.37,-1187.07C607.27,-1161.11 750.01,-1114.15 765,-1094.11 834.91,-1000.64 727.71,-660.94 801,-570.11 860.27,-496.66 915.1,-539.84 1005,-511.11 1187.78,-452.7 1238.22,-444.22 1406,-351.11 1433.1,-336.07 1462.67,-317.32 1484.9,-302.73"/>
<polygon fill="blue" stroke="blue" points="1486.93,-305.59 1493.34,-297.16 1483.07,-299.74 1486.93,-305.59"/>
</g>
<!-- Path_distance_bias&#45;&gt;Mission_success -->
<g id="edge14" class="edge">
<title>Path_distance_bias&#45;&gt;Mission_success</title>
<path fill="none" stroke="blue" d="M540.67,-1214.53C627.54,-1224.6 774.87,-1239.11 902,-1239.11 902,-1239.11 902,-1239.11 1151,-1239.11 1180.54,-1239.11 1404.24,-1203.68 1406,-1203.11 1432.9,-1194.4 1461.14,-1179.83 1482.78,-1167.35"/>
<polygon fill="blue" stroke="blue" points="1484.78,-1170.24 1491.63,-1162.15 1481.23,-1164.2 1484.78,-1170.24"/>
</g>
<!-- Goal_distance_bias -->
<g id="node13" class="node">
<title>Goal_distance_bias</title>
<text text-anchor="middle" x="464.5" y="-416.41" font-family="Times,serif" font-size="14.00">Goal_distance_bias</text>
</g>
<!-- recovery_executed -->
<g id="node21" class="node">
<title>recovery_executed</title>
<text text-anchor="middle" x="686.5" y="-568.41" font-family="Times,serif" font-size="14.00">recovery_executed</text>
</g>
<!-- Goal_distance_bias&#45;&gt;recovery_executed -->
<g id="edge59" class="edge">
<title>Goal_distance_bias&#45;&gt;recovery_executed</title>
<path fill="none" stroke="blue" d="M540.69,-437.27C551.61,-441.29 562.39,-446.18 572,-452.11 611.64,-476.55 646.67,-518.29 666.98,-545.53"/>
<polygon fill="blue" stroke="blue" points="664.32,-547.82 673.05,-553.82 669.97,-543.68 664.32,-547.82"/>
</g>
<!-- Goal_distance_bias&#45;&gt;Traveled_distance -->
<g id="edge41" class="edge">
<title>Goal_distance_bias&#45;&gt;Traveled_distance</title>
<path fill="none" stroke="blue" d="M540.72,-433.65C551.35,-436.34 562.05,-439.48 572,-443.11 663.16,-476.33 698.44,-474.52 765,-545.11 791.47,-573.18 770.61,-600.34 801,-624.11 873.65,-680.92 938.46,-598.25 1005,-662.11 1056.65,-711.68 991.99,-766.93 1041,-819.11 1048.3,-826.89 1057.4,-832.8 1067.2,-837.3"/>
<polygon fill="blue" stroke="blue" points="1066.18,-840.66 1076.76,-841.18 1068.82,-834.18 1066.18,-840.66"/>
</g>
<!-- Goal_distance_bias&#45;&gt;Mission_time -->
<g id="edge49" class="edge">
<title>Goal_distance_bias&#45;&gt;Mission_time</title>
<path fill="none" stroke="blue" d="M540.59,-414.98C690.23,-408.48 1030.83,-412.71 1259,-562.11 1295.46,-585.98 1322.27,-629.95 1336.88,-658.6"/>
<polygon fill="blue" stroke="blue" points="1333.79,-660.26 1341.36,-667.68 1340.07,-657.16 1333.79,-660.26"/>
</g>
<!-- Goal_distance_bias&#45;&gt;Battery_percentage -->
<g id="edge46" class="edge">
<title>Goal_distance_bias&#45;&gt;Battery_percentage</title>
<path fill="none" stroke="blue" d="M480.08,-401.84C522.71,-350.1 653.44,-202.96 801,-151.11 927.84,-106.54 1283.33,-96.09 1406,-151.11 1451.77,-171.64 1486.69,-220.63 1505.21,-251.7"/>
<polygon fill="blue" stroke="blue" points="1502.38,-253.81 1510.42,-260.71 1508.44,-250.3 1502.38,-253.81"/>
</g>
<!-- Goal_distance_bias&#45;&gt;Mission_success -->
<g id="edge38" class="edge">
<title>Goal_distance_bias&#45;&gt;Mission_success</title>
<path fill="none" stroke="blue" d="M479.62,-438.56C533.56,-509.35 725.52,-764.21 765,-857.11 796.06,-930.19 743.51,-977.33 801,-1032.11 847.18,-1076.11 1268.05,-1120.4 1443.63,-1137.13"/>
<polygon fill="blue" stroke="blue" points="1443.54,-1140.64 1453.82,-1138.1 1444.2,-1133.67 1443.54,-1140.64"/>
</g>
<!-- Occdist_scale -->
<g id="node14" class="node">
<title>Occdist_scale</title>
<text text-anchor="middle" x="93.5" y="-294.41" font-family="Times,serif" font-size="14.00">Occdist_scale</text>
</g>
<!-- Occdist_scale&#45;&gt;DWA_failed -->
<g id="edge17" class="edge">
<title>Occdist_scale&#45;&gt;DWA_failed</title>
<path fill="none" stroke="blue" d="M97.4,-316.21C107.78,-378.06 146.62,-585.76 223,-740.11 229.81,-753.87 239.57,-767.74 248.51,-779.12"/>
<polygon fill="blue" stroke="blue" points="245.81,-781.35 254.82,-786.92 251.26,-776.95 245.81,-781.35"/>
</g>
<!-- DWA_new_plan -->
<g id="node20" class="node">
<title>DWA_new_plan</title>
<text text-anchor="middle" x="464.5" y="-755.41" font-family="Times,serif" font-size="14.00">DWA_new_plan</text>
</g>
<!-- Occdist_scale&#45;&gt;DWA_new_plan -->
<g id="edge1" class="edge">
<title>Occdist_scale&#45;&gt;DWA_new_plan</title>
<path fill="none" stroke="blue" d="M105.01,-316.34C151.49,-396.88 337.21,-717.45 357,-732.11 367.28,-739.72 379.48,-745.2 391.9,-749.14"/>
<polygon fill="blue" stroke="blue" points="391.29,-752.61 401.87,-751.98 393.21,-745.87 391.29,-752.61"/>
</g>
<!-- Occdist_scale&#45;&gt;recovery_executed -->
<g id="edge11" class="edge">
<title>Occdist_scale&#45;&gt;recovery_executed</title>
<path fill="none" stroke="blue" d="M122.87,-316.13C170.2,-345.75 268.81,-405.6 357,-447.11 446.19,-489.09 553.64,-527.87 620.78,-550.76"/>
<polygon fill="blue" stroke="blue" points="619.79,-554.13 630.38,-554.03 622.04,-547.5 619.79,-554.13"/>
</g>
<!-- Occdist_scale&#45;&gt;Mission_time -->
<g id="edge64" class="edge">
<title>Occdist_scale&#45;&gt;Mission_time</title>
<path fill="none" stroke="blue" d="M147.59,-280.09C330.51,-221.7 940.71,-58.29 1259,-358.11 1303.17,-399.72 1334.73,-585.8 1345.47,-657.66"/>
<polygon fill="blue" stroke="blue" points="1342.05,-658.41 1346.96,-667.79 1348.97,-657.39 1342.05,-658.41"/>
</g>
<!-- Occdist_scale&#45;&gt;Battery_percentage -->
<g id="edge61" class="edge">
<title>Occdist_scale&#45;&gt;Battery_percentage</title>
<path fill="none" stroke="blue" d="M107.1,-279.77C141.21,-231.63 240.67,-100.98 357,-37.11 399.53,-13.76 414.98,-13.11 463.5,-13.11 463.5,-13.11 463.5,-13.11 1151,-13.11 1264.83,-13.11 1312.84,28.31 1406,-37.11 1479.07,-88.42 1506.69,-199.15 1515.91,-251.11"/>
<polygon fill="blue" stroke="blue" points="1512.46,-251.69 1517.56,-260.98 1519.36,-250.53 1512.46,-251.69"/>
</g>
<!-- Occdist_scale&#45;&gt;Mission_success -->
<g id="edge51" class="edge">
<title>Occdist_scale&#45;&gt;Mission_success</title>
<path fill="none" stroke="blue" d="M97.55,-316.46C109.29,-385.46 154.41,-635.37 223,-832.11 257.04,-929.74 292.22,-943.79 321,-1043.11 338.28,-1102.73 312.47,-1276.86 357,-1320.11 409.63,-1371.23 612.13,-1353.11 685.5,-1353.11 685.5,-1353.11 685.5,-1353.11 1151,-1353.11 1265.22,-1353.11 1309.33,-1381.95 1406,-1321.11 1462.04,-1285.84 1495.85,-1211.86 1510.83,-1171.61"/>
<polygon fill="blue" stroke="blue" points="1514.15,-1172.74 1514.24,-1162.15 1507.56,-1170.37 1514.15,-1172.74"/>
</g>
<!-- Stop_time_buffer -->
<g id="node15" class="node">
<title>Stop_time_buffer</title>
<text text-anchor="middle" x="93.5" y="-1130.41" font-family="Times,serif" font-size="14.00">Stop_time_buffer</text>
</g>
<!-- yaw_goal_tolerance -->
<g id="node16" class="node">
<title>yaw_goal_tolerance</title>
<text text-anchor="middle" x="93.5" y="-809.41" font-family="Times,serif" font-size="14.00">yaw_goal_tolerance</text>
</g>
<!-- yaw_goal_tolerance&#45;&gt;DWA_failed -->
<g id="edge52" class="edge">
<title>yaw_goal_tolerance&#45;&gt;DWA_failed</title>
<path fill="none" stroke="blue" d="M171.15,-809.63C185.02,-809.01 199.28,-808.36 212.53,-807.76"/>
<polygon fill="blue" stroke="blue" points="213.08,-811.24 222.91,-807.29 212.76,-804.24 213.08,-811.24"/>
</g>
<!-- yaw_goal_tolerance&#45;&gt;Error_rotating_goal -->
<g id="edge45" class="edge">
<title>yaw_goal_tolerance&#45;&gt;Error_rotating_goal</title>
<path fill="none" stroke="blue" d="M115.77,-831.17C158.57,-866.59 259.38,-945.45 357,-988.11 434.84,-1022.12 529.73,-1042.94 597.48,-1054.6"/>
<polygon fill="blue" stroke="blue" points="597.25,-1058.11 607.69,-1056.32 598.41,-1051.21 597.25,-1058.11"/>
</g>
<!-- yaw_goal_tolerance&#45;&gt;Mission_time -->
<g id="edge4" class="edge">
<title>yaw_goal_tolerance&#45;&gt;Mission_time</title>
<path fill="none" stroke="blue" d="M171.02,-799.45C177.07,-795.93 182.55,-791.55 187,-786.11 247.15,-712.57 153.05,-424.4 223,-360.11 393.36,-203.54 1079.29,-318.36 1259,-464.11 1319.86,-513.47 1340.15,-610.29 1346.63,-658.07"/>
<polygon fill="blue" stroke="blue" points="1343.16,-658.54 1347.87,-668.03 1350.1,-657.67 1343.16,-658.54"/>
</g>
<!-- yaw_goal_tolerance&#45;&gt;Battery_percentage -->
<g id="edge13" class="edge">
<title>yaw_goal_tolerance&#45;&gt;Battery_percentage</title>
<path fill="none" stroke="blue" d="M171.08,-799.5C177.12,-795.96 182.58,-791.57 187,-786.11 254.46,-702.81 187.78,-406.34 223,-305.11 257.92,-204.75 267.68,-164.66 357,-107.11 481.5,-26.89 537.39,-51.11 685.5,-51.11 685.5,-51.11 685.5,-51.11 1151,-51.11 1265.06,-51.11 1310.71,-17.42 1406,-80.11 1467.59,-120.63 1499.72,-206.63 1512.79,-251.13"/>
<polygon fill="blue" stroke="blue" points="1509.49,-252.32 1515.57,-260.99 1516.22,-250.42 1509.49,-252.32"/>
</g>
<!-- yaw_goal_tolerance&#45;&gt;Mission_success -->
<g id="edge35" class="edge">
<title>yaw_goal_tolerance&#45;&gt;Mission_success</title>
<path fill="none" stroke="blue" d="M111.96,-831.22C155.42,-877.48 268.7,-1005.49 321,-1135.11 360.04,-1231.88 280.29,-1296.37 357,-1367.11 410.81,-1416.73 612.31,-1391.11 685.5,-1391.11 685.5,-1391.11 685.5,-1391.11 1151,-1391.11 1264.83,-1391.11 1311.79,-1431.01 1406,-1367.11 1474.22,-1320.83 1503.92,-1220.79 1514.74,-1172"/>
<polygon fill="blue" stroke="blue" points="1518.18,-1172.64 1516.82,-1162.13 1511.33,-1171.19 1518.18,-1172.64"/>
</g>
<!-- xy_goal_tolerance -->
<g id="node17" class="node">
<title>xy_goal_tolerance</title>
<text text-anchor="middle" x="93.5" y="-755.41" font-family="Times,serif" font-size="14.00">xy_goal_tolerance</text>
</g>
<!-- xy_goal_tolerance&#45;&gt;DWA_failed -->
<g id="edge15" class="edge">
<title>xy_goal_tolerance&#45;&gt;DWA_failed</title>
<path fill="none" stroke="blue" d="M163.75,-777.16C179.99,-781.39 197.13,-785.86 212.83,-789.95"/>
<polygon fill="blue" stroke="blue" points="212.36,-793.44 222.92,-792.58 214.12,-786.67 212.36,-793.44"/>
</g>
<!-- xy_goal_tolerance&#45;&gt;DWA_new_plan -->
<g id="edge32" class="edge">
<title>xy_goal_tolerance&#45;&gt;DWA_new_plan</title>
<path fill="none" stroke="blue" d="M165.21,-759.11C230.27,-759.11 326.29,-759.11 391.69,-759.11"/>
<polygon fill="blue" stroke="blue" points="391.91,-762.61 401.91,-759.11 391.91,-755.61 391.91,-762.61"/>
</g>
<!-- min_vel_x -->
<g id="node18" class="node">
<title>min_vel_x</title>
<text text-anchor="middle" x="272" y="-709.41" font-family="Times,serif" font-size="14.00">min_vel_x</text>
</g>
<!-- min_vel_x&#45;&gt;DWA_new_plan -->
<g id="edge63" class="edge">
<title>min_vel_x&#45;&gt;DWA_new_plan</title>
<path fill="none" stroke="blue" d="M315.28,-723.32C337.83,-728.76 366.19,-735.61 392.04,-741.85"/>
<polygon fill="blue" stroke="blue" points="391.27,-745.27 401.81,-744.21 392.92,-738.46 391.27,-745.27"/>
</g>
<!-- min_vel_x&#45;&gt;Battery_percentage -->
<g id="edge5" class="edge">
<title>min_vel_x&#45;&gt;Battery_percentage</title>
<path fill="none" stroke="blue" d="M273.34,-695.07C275.17,-640.36 286.53,-473.18 357,-360.11 457.11,-199.48 496.23,-89.11 685.5,-89.11 685.5,-89.11 685.5,-89.11 1151,-89.11 1265.22,-89.11 1307.76,-62.84 1406,-121.11 1457.19,-151.47 1491.87,-214.74 1508.55,-251.33"/>
<polygon fill="blue" stroke="blue" points="1505.53,-253.17 1512.77,-260.9 1511.93,-250.34 1505.53,-253.17"/>
</g>
<!-- min_vel_x&#45;&gt;Mission_success -->
<g id="edge27" class="edge">
<title>min_vel_x&#45;&gt;Mission_success</title>
<path fill="none" stroke="blue" d="M290.83,-731.33C301.58,-743.52 314.42,-760.5 321,-778.11 356.42,-872.91 287.51,-1158.54 357,-1232.11 407.59,-1285.67 611.82,-1277.11 685.5,-1277.11 685.5,-1277.11 685.5,-1277.11 1151,-1277.11 1266.67,-1277.11 1299.9,-1271.16 1406,-1225.11 1438.19,-1211.14 1470.37,-1187.12 1492.29,-1168.86"/>
<polygon fill="blue" stroke="blue" points="1494.81,-1171.31 1500.17,-1162.17 1490.28,-1165.98 1494.81,-1171.31"/>
</g>
<!-- DWA_failed&#45;&gt;DWA_new_plan -->
<g id="edge68" class="edge">
<title>DWA_failed&#45;&gt;DWA_new_plan</title>
<path fill="none" stroke="red" d="M331.09,-791.08C350.3,-786.44 371.91,-781.23 392,-776.37"/>
<polygon fill="red" stroke="red" points="329.97,-787.75 321.07,-793.5 331.61,-794.56 329.97,-787.75"/>
<polygon fill="red" stroke="red" points="392.83,-779.77 401.73,-774.02 391.19,-772.97 392.83,-779.77"/>
</g>
<!-- RNS -->
<g id="node23" class="node">
<title>RNS</title>
<text text-anchor="middle" x="903" y="-777.41" font-family="Times,serif" font-size="14.00">RNS</text>
</g>
<!-- DWA_failed&#45;&gt;RNS -->
<g id="edge69" class="edge">
<title>DWA_failed&#45;&gt;RNS</title>
<path fill="none" stroke="red" d="M331.08,-802.89C459.87,-797.98 766.09,-786.29 868.2,-782.4"/>
<polygon fill="red" stroke="red" points="330.91,-799.4 321.05,-803.28 331.18,-806.39 330.91,-799.4"/>
<polygon fill="red" stroke="red" points="868.4,-785.89 878.26,-782.01 868.14,-778.9 868.4,-785.89"/>
</g>
<!-- DWA_failed&#45;&gt;Traveled_distance -->
<g id="edge48" class="edge">
<title>DWA_failed&#45;&gt;Traveled_distance</title>
<path fill="none" stroke="blue" d="M321.27,-812.08C413.99,-825.08 623.54,-852.56 801,-862.11 891.54,-866.98 914.4,-865.56 1005,-862.11 1025.04,-861.34 1046.62,-859.98 1066.81,-858.47"/>
<polygon fill="blue" stroke="blue" points="1067.21,-861.95 1076.91,-857.7 1066.67,-854.97 1067.21,-861.95"/>
</g>
<!-- DWA_failed&#45;&gt;Battery_percentage -->
<g id="edge28" class="edge">
<title>DWA_failed&#45;&gt;Battery_percentage</title>
<path fill="none" stroke="blue" d="M290.45,-787.11C301.18,-774.88 314.16,-757.77 321,-740.11 349.01,-667.82 302.23,-447.97 357,-393.11 421.41,-328.59 674.4,-360.3 765,-350.11 887.77,-336.3 918.19,-330.49 1041,-317.11 1153.77,-304.82 1181.91,-300.94 1295,-292.11 1340.05,-288.59 1390.24,-285.6 1431.76,-283.38"/>
<polygon fill="blue" stroke="blue" points="1432.05,-286.87 1441.85,-282.85 1431.68,-279.88 1432.05,-286.87"/>
</g>
<!-- DWA_failed&#45;&gt;Mission_success -->
<g id="edge29" class="edge">
<title>DWA_failed&#45;&gt;Mission_success</title>
<path fill="none" stroke="blue" d="M277.76,-823.25C287.13,-859.49 308.18,-943.51 321,-1015.11 331.9,-1075.99 312.04,-1248.63 357,-1291.11 410.2,-1341.38 612.31,-1315.11 685.5,-1315.11 685.5,-1315.11 685.5,-1315.11 1151,-1315.11 1264.83,-1315.11 1306.24,-1345.93 1406,-1291.11 1455.28,-1264.02 1490.27,-1205.77 1507.6,-1171.29"/>
<polygon fill="blue" stroke="blue" points="1510.78,-1172.76 1512.02,-1162.23 1504.49,-1169.69 1510.78,-1172.76"/>
</g>
<!-- DWA_new_plan&#45;&gt;recovery_executed -->
<g id="edge18" class="edge">
<title>DWA_new_plan&#45;&gt;recovery_executed</title>
<path fill="none" stroke="blue" d="M527.23,-751.19C542.78,-747.19 558.79,-741.17 572,-732.11 621.3,-698.31 656.34,-635.66 673.51,-599.6"/>
<polygon fill="blue" stroke="blue" points="676.85,-600.72 677.88,-590.18 670.5,-597.78 676.85,-600.72"/>
</g>
<!-- DWA_new_plan&#45;&gt;Error_rotating_goal -->
<g id="edge70" class="edge">
<title>DWA_new_plan&#45;&gt;Error_rotating_goal</title>
<path fill="none" stroke="red" d="M484.01,-785.63C506.81,-819.11 545.74,-878.99 572,-934.11 592.49,-977.13 575.14,-1000.59 608,-1035.11 610.94,-1038.19 614.21,-1040.99 617.71,-1043.52"/>
<polygon fill="red" stroke="red" points="486.85,-783.58 478.31,-777.31 481.08,-787.54 486.85,-783.58"/>
<polygon fill="red" stroke="red" points="615.93,-1046.54 626.24,-1048.98 619.7,-1040.64 615.93,-1046.54"/>
</g>
<!-- DWA_new_plan&#45;&gt;Battery_percentage -->
<g id="edge54" class="edge">
<title>DWA_new_plan&#45;&gt;Battery_percentage</title>
<path fill="none" stroke="blue" d="M527.18,-755.46C543.74,-751.56 560.28,-744.53 572,-732.11 630.08,-670.55 555.24,-611.29 608,-545.11 712.26,-414.34 1223.68,-323.82 1431.73,-291.85"/>
<polygon fill="blue" stroke="blue" points="1432.35,-295.3 1441.71,-290.33 1431.29,-288.38 1432.35,-295.3"/>
</g>
<!-- DWA_new_plan&#45;&gt;Mission_success -->
<g id="edge47" class="edge">
<title>DWA_new_plan&#45;&gt;Mission_success</title>
<path fill="none" stroke="blue" d="M476.86,-777.4C496.52,-809.13 538.03,-876.52 572,-934.11 588.38,-961.89 582.51,-977.35 608,-997.11 665.18,-1041.44 711.8,-991.08 765,-1040.11 799.43,-1071.84 762.75,-1112.12 801,-1139.11 852.44,-1175.41 1269.28,-1157.6 1443.7,-1148.42"/>
<polygon fill="blue" stroke="blue" points="1444.03,-1151.91 1453.83,-1147.89 1443.66,-1144.92 1444.03,-1151.91"/>
</g>
<!-- recovery_executed&#45;&gt;RNS -->
<g id="edge31" class="edge">
<title>recovery_executed&#45;&gt;RNS</title>
<path fill="none" stroke="blue" d="M699.1,-590.53C717.98,-619.56 757.65,-676.72 801,-716.11 821.84,-735.04 848.79,-752.09 869.61,-763.96"/>
<polygon fill="blue" stroke="blue" points="867.98,-767.06 878.41,-768.89 871.39,-760.95 867.98,-767.06"/>
</g>
<!-- recovery_executed&#45;&gt;Mission_time -->
<g id="edge66" class="edge">
<title>recovery_executed&#45;&gt;Mission_time</title>
<path fill="none" stroke="red" d="M772.13,-563.05C887.42,-554.25 1097.91,-551 1259,-621.11 1281.86,-631.06 1304.65,-647.47 1321.64,-661.31"/>
<polygon fill="red" stroke="red" points="771.65,-559.57 761.96,-563.86 772.2,-566.55 771.65,-559.57"/>
<polygon fill="red" stroke="red" points="1319.57,-664.14 1329.49,-667.86 1324.05,-658.77 1319.57,-664.14"/>
</g>
<!-- recovery_executed&#45;&gt;Battery_percentage -->
<g id="edge33" class="edge">
<title>recovery_executed&#45;&gt;Battery_percentage</title>
<path fill="none" stroke="blue" d="M738.95,-554C885.05,-502.58 1301.99,-355.84 1459.11,-300.54"/>
<polygon fill="blue" stroke="blue" points="1460.36,-303.81 1468.63,-297.19 1458.03,-297.21 1460.36,-303.81"/>
</g>
<!-- recovery_executed&#45;&gt;Mission_success -->
<g id="edge6" class="edge">
<title>recovery_executed&#45;&gt;Mission_success</title>
<path fill="none" stroke="blue" d="M693.52,-590.36C707.24,-632.26 741.42,-738.7 765,-829.11 783.72,-900.9 746.38,-941.9 801,-992.11 900.87,-1083.9 1278.35,-1027.23 1406,-1073.11 1436.41,-1084.04 1467.31,-1103.95 1489.25,-1119.91"/>
<polygon fill="blue" stroke="blue" points="1487.38,-1122.87 1497.5,-1126.02 1491.55,-1117.25 1487.38,-1122.87"/>
</g>
<!-- Error_rotating_goal&#45;&gt;RNS -->
<g id="edge67" class="edge">
<title>Error_rotating_goal&#45;&gt;RNS</title>
<path fill="none" stroke="red" d="M691.72,-1038.76C701.19,-985.37 729.22,-869.75 801,-808.11 819.7,-792.05 846.97,-785.43 868.47,-782.76"/>
<polygon fill="red" stroke="red" points="688.22,-1038.43 690.02,-1048.87 695.13,-1039.59 688.22,-1038.43"/>
<polygon fill="red" stroke="red" points="868.9,-786.23 878.49,-781.74 868.19,-779.27 868.9,-786.23"/>
</g>
<!-- Error_rotating_goal&#45;&gt;Mission_success -->
<g id="edge9" class="edge">
<title>Error_rotating_goal&#45;&gt;Mission_success</title>
<path fill="none" stroke="blue" d="M699.47,-1085.53C717.71,-1111.72 755.22,-1158.56 801,-1177.11 1025.62,-1268.1 1322.58,-1202.28 1453.34,-1165.02"/>
<polygon fill="blue" stroke="blue" points="1454.58,-1168.31 1463.22,-1162.17 1452.64,-1161.58 1454.58,-1168.31"/>
</g>
<!-- RNS&#45;&gt;Traveled_distance -->
<g id="edge19" class="edge">
<title>RNS&#45;&gt;Traveled_distance</title>
<path fill="none" stroke="blue" d="M927.74,-787.2C948.25,-792.53 978.65,-800.56 1005,-808.11 1021.08,-812.71 1024.98,-814.29 1041,-819.11 1052.97,-822.71 1065.69,-826.51 1078.05,-830.18"/>
<polygon fill="blue" stroke="blue" points="1077.28,-833.6 1087.86,-833.09 1079.27,-826.89 1077.28,-833.6"/>
</g>
<!-- RNS&#45;&gt;Battery_percentage -->
<g id="edge25" class="edge">
<title>RNS&#45;&gt;Battery_percentage</title>
<path fill="none" stroke="blue" d="M927.77,-771.47C950.65,-761.05 984.7,-742.32 1005,-716.11 1036.24,-675.77 1003.13,-641.29 1041,-607.11 1114.65,-540.63 1163.2,-584.91 1259,-559.11 1325.23,-541.27 1354.1,-556.95 1406,-512.11 1470.44,-456.42 1501.89,-355.85 1513.92,-307.1"/>
<polygon fill="blue" stroke="blue" points="1517.35,-307.79 1516.26,-297.25 1510.54,-306.17 1517.35,-307.79"/>
</g>
<!-- RNS&#45;&gt;Mission_success -->
<g id="edge62" class="edge">
<title>RNS&#45;&gt;Mission_success</title>
<path fill="none" stroke="blue" d="M927.68,-782.08C949.85,-784.12 982.82,-790.22 1005,-808.11 1032.24,-830.07 1014.17,-855.66 1041,-878.11 1171.14,-987 1267.47,-892.12 1406,-990.11 1453.16,-1023.47 1488.8,-1082.44 1506.85,-1116.92"/>
<polygon fill="blue" stroke="blue" points="1503.8,-1118.65 1511.46,-1125.96 1510.03,-1115.46 1503.8,-1118.65"/>
</g>
<!-- Traveled_distance&#45;&gt;Mission_time -->
<g id="edge71" class="edge">
<title>Traveled_distance&#45;&gt;Mission_time</title>
<path fill="none" stroke="red" d="M1195.79,-828.07C1216.02,-816.7 1239.66,-802.03 1259,-786.11 1285.98,-763.91 1312.25,-733.62 1329.47,-712.21"/>
<polygon fill="red" stroke="red" points="1193.83,-825.15 1186.77,-833.05 1197.22,-831.28 1193.83,-825.15"/>
<polygon fill="red" stroke="red" points="1332.36,-714.2 1335.84,-704.2 1326.88,-709.85 1332.36,-714.2"/>
</g>
<!-- Traveled_distance&#45;&gt;Battery_percentage -->
<g id="edge58" class="edge">
<title>Traveled_distance&#45;&gt;Battery_percentage</title>
<path fill="none" stroke="blue" d="M1214.01,-833.04C1272.33,-813.08 1357.18,-775.26 1406,-713.11 1505.3,-586.69 1518.59,-382.09 1520,-307.48"/>
<polygon fill="blue" stroke="blue" points="1523.5,-307.49 1520.14,-297.44 1516.5,-307.4 1523.5,-307.49"/>
</g>
<!-- Traveled_distance&#45;&gt;Mission_success -->
<g id="edge50" class="edge">
<title>Traveled_distance&#45;&gt;Mission_success</title>
<path fill="none" stroke="blue" d="M1223.27,-855.38C1278.64,-862.04 1354.1,-878.88 1406,-921.11 1469.34,-972.65 1501.1,-1068.58 1513.52,-1116.03"/>
<polygon fill="blue" stroke="blue" points="1510.18,-1117.09 1516.02,-1125.93 1516.97,-1115.38 1510.18,-1117.09"/>
</g>
<!-- Mission_time&#45;&gt;Battery_percentage -->
<g id="edge7" class="edge">
<title>Mission_time&#45;&gt;Battery_percentage</title>
<path fill="none" stroke="blue" d="M1375.91,-667.96C1386.43,-659.07 1398.1,-647.59 1406,-635.11 1475.39,-525.47 1505.93,-369.94 1515.98,-307.08"/>
<polygon fill="blue" stroke="blue" points="1519.45,-307.54 1517.52,-297.13 1512.53,-306.47 1519.45,-307.54"/>
</g>
<!-- Mission_time&#45;&gt;Mission_success -->
<g id="edge20" class="edge">
<title>Mission_time&#45;&gt;Mission_success</title>
<path fill="none" stroke="blue" d="M1362.1,-704.25C1373.85,-724.84 1392.86,-759.65 1406,-791.11 1455.16,-908.84 1496.5,-1055.75 1512.69,-1116.18"/>
<polygon fill="blue" stroke="blue" points="1509.38,-1117.34 1515.33,-1126.1 1516.14,-1115.54 1509.38,-1117.34"/>
</g>
</g>
</svg>
